<svg width="800" height="800" viewBox="0 0 800 800" fill="none" xmlns="http://www.w3.org/2000/svg">
<path d="M209.094 289.297V486.094H578.953V289.297H444.761V449.203C444.791 451.614 443.864 453.946 442.185 455.673C440.501 457.4 438.194 458.395 435.783 458.425H352.262C349.851 458.395 347.55 457.4 345.866 455.673C344.181 453.946 343.253 451.614 343.284 449.203V289.297H209.094ZM486.094 350.802C486.063 348.385 486.991 346.059 488.675 344.326C490.36 342.598 492.661 341.61 495.072 341.573H542.802C545.213 341.61 547.514 342.599 549.198 344.326C550.883 346.059 551.811 348.385 551.78 350.802V436.903V436.897C551.81 439.314 550.883 441.64 549.198 443.373C547.514 445.1 545.213 446.089 542.802 446.125H495.444C492.966 446.193 490.567 445.247 488.803 443.501C487.039 441.761 486.063 439.375 486.093 436.897L486.094 350.802ZM301.594 436.898C301.624 439.315 300.697 441.641 299.012 443.374C297.327 445.102 295.026 446.09 292.615 446.127H244.886C242.475 446.09 240.174 445.101 238.489 443.374C236.805 441.641 235.877 439.315 235.907 436.898V350.802C235.877 348.385 236.805 346.059 238.489 344.326C240.174 342.598 242.475 341.61 244.886 341.573H292.615C295.026 341.61 297.327 342.599 299.012 344.326C300.697 346.059 301.624 348.385 301.594 350.802V436.898Z" fill="white"/>
<path d="M504.297 360.016H534.064V427.667H504.297V360.016Z" fill="white"/>
<path d="M253.875 360.016H283.642V427.667H253.875V360.016Z" fill="white"/>
<path d="M400 71.7031L179.828 264.687H620.172L400 71.7031Z" fill="white"/>
<path d="M361.25 372.328H426.808V390.78H361.25V372.328Z" fill="#E7E7E7"/>
<path d="M361.25 409.219H426.808V439.969H361.25V409.219Z" fill="#E7E7E7"/>
<path d="M361.25 335.422H426.808V353.873H361.25V335.422Z" fill="#E7E7E7"/>
<path d="M361.25 289.297H426.808V316.97H361.25V289.297Z" fill="#E7E7E7"/>
<mask id="mask0_17_5" style="mask-type:luminance" maskUnits="userSpaceOnUse" x="6" y="460" width="788" height="200">
<path d="M6.39062 460.938H793.594V659.375H6.39062V460.938Z" fill="white"/>
</mask>
<g mask="url(#mask0_17_5)">
<path d="M722.016 633.703V559.906H638.495C631.702 559.906 626.197 554.395 626.197 547.601V461.505H602.705V498.406C602.705 501.665 601.405 504.796 599.097 507.104C596.796 509.405 593.665 510.705 590.406 510.705H567.036V633.703H543.172V510.705H492.494V633.703H468.758V510.705H343.665V633.703H319.801V510.705H256.825V633.703H232.965V510.705H197.29C190.503 510.705 184.992 505.199 184.992 498.406V461.505H172.693V547.606V547.6C172.693 550.865 171.399 553.997 169.092 556.298C166.785 558.605 163.654 559.905 160.395 559.905H77.9852V633.702H6.39771V658.299L793.601 658.305V633.701L722.016 633.703Z" fill="white"/>
</g>
</svg>
