<svg width="3710" height="3710" viewBox="0 0 3710 3710" fill="none" xmlns="http://www.w3.org/2000/svg">
<path d="M3502.45 357.9C3502.45 462.756 3423.69 549.23 3322.12 561.38C3314.04 562.35 3305.84 562.84 3297.5 562.849C3184.33 562.849 3092.57 471.087 3092.57 357.9C3092.57 306.351 3111.59 259.25 3143.03 223.249C3180.59 180.175 3235.88 152.964 3297.5 152.964C3410.69 152.964 3502.45 244.726 3502.45 357.9Z" fill="url(#paint0_linear_6_2)"/>
<path style="mix-blend-mode:multiply" opacity="0.2" d="M3391.55 478.762C3381.18 507.653 3356.81 536.058 3322.12 561.379C3314.04 562.35 3305.84 562.84 3297.5 562.849C3184.33 562.849 3092.57 471.087 3092.57 357.9C3092.57 306.351 3111.59 259.25 3143.03 223.249C3144.64 238.166 3152.29 254.776 3170.82 271.858C3189.78 289.295 3220.11 307.23 3267.05 324.247C3379.1 364.893 3411.65 422.726 3391.55 478.762Z" fill="url(#paint1_linear_6_2)"/>
<g style="mix-blend-mode:soft-light" opacity="0.3">
<path d="M3450.63 357.9C3450.63 442.472 3382.08 511.025 3297.5 511.025C3212.95 511.025 3144.38 442.472 3144.38 357.9C3144.38 273.341 3212.95 204.775 3297.5 204.775C3382.08 204.775 3450.63 273.341 3450.63 357.9Z" fill="white"/>
</g>
<path d="M2751.34 416.18C2751.34 416.18 2837 250.21 2983.86 314.564C3130.7 378.932 3117.1 345.147 3219.07 357.966C3321.05 370.771 3447.26 441.541 3365.13 455.776C3282.98 470.024 2639.85 486.346 2639.85 486.346C2639.85 486.346 2649.36 424.878 2751.34 416.18Z" fill="white"/>
<path d="M259.758 2551.17C240.261 2550.28 222.733 2547.83 206.936 2543.9C-72.1017 2474.8 202.882 1958.55 202.882 1958.55C219.755 1922.3 242.269 1855.66 269.191 1806.07C269.191 1806.02 269.244 1805.96 269.244 1805.91C314.429 1722.85 371.908 1687.8 436.026 1923.77C538.337 2300.71 623.617 2567.44 259.758 2551.17Z" fill="url(#paint2_linear_6_2)"/>
<path style="mix-blend-mode:multiply" opacity="0.3" d="M259.758 2551.17C240.262 2550.28 222.733 2547.83 206.937 2543.9C296.166 2507.49 383.507 2286.38 383.507 2133.79C383.507 1966.4 269.191 1806.07 269.191 1806.07C269.191 1806.02 269.244 1805.96 269.244 1805.91C314.429 1722.85 371.908 1687.8 436.026 1923.77C538.337 2300.71 623.617 2567.44 259.758 2551.17Z" fill="url(#paint3_linear_6_2)"/>
<path d="M1060.56 1955.77C939.812 1881.5 910.79 1744.33 903.81 1711.34C899.73 1692.08 868.924 1535.07 957.97 1398.55C1037.99 1275.87 1143.07 1279.64 1194.59 1142.15C1217.64 1080.63 1218.29 1022.04 1218.3 1016.71C1218.61 915.832 1173.48 895.495 1178.72 816.526C1184.3 732.006 1241.53 671.509 1278.83 632.097C1324.41 583.92 1366.29 539.666 1426.97 540.663C1486.25 541.647 1544.88 585.547 1568.91 639.746C1605.87 723.084 1533.5 768.742 1552.68 900.94C1564.77 984.384 1596.59 986.733 1596.3 1059.97C1595.97 1139.59 1558.27 1162.97 1542.98 1243.78C1527.41 1326.04 1553.65 1369.66 1571.81 1461.27C1589.11 1548.59 1626.14 1735.33 1545.25 1856.83C1456.74 1989.75 1220.66 2054.26 1060.56 1955.77Z" fill="url(#paint4_linear_6_2)"/>
<mask id="mask0_6_2" style="mask-type:luminance" maskUnits="userSpaceOnUse" x="894" y="542" width="703" height="1464">
<path d="M1059.51 1957.25C938.841 1882.83 909.963 1745.64 903.023 1712.64C898.969 1693.38 868.32 1536.35 957.524 1399.91C1037.66 1277.32 1142.74 1281.2 1194.41 1143.77C1217.52 1082.27 1218.23 1023.68 1218.26 1018.35C1218.67 917.472 1173.57 897.096 1178.87 818.126C1184.57 733.607 1241.86 673.175 1279.2 633.802C1324.83 585.678 1366.77 541.463 1427.43 542.526C1486.72 543.575 1545.29 587.541 1569.27 641.753C1606.14 725.144 1533.72 770.723 1552.76 902.935C1564.76 986.391 1596.58 988.779 1596.21 1062.02C1595.8 1141.64 1558.07 1164.98 1542.69 1245.78C1527.03 1328.03 1553.21 1371.65 1571.28 1463.29C1588.49 1550.63 1625.32 1737.41 1544.29 1858.81C1455.65 1991.64 1219.51 2055.91 1059.51 1957.25Z" fill="white"/>
</mask>
<g mask="url(#mask0_6_2)">
<g style="mix-blend-mode:soft-light" opacity="0.7">
<g style="mix-blend-mode:soft-light">
<path d="M1161.02 2061.37C1160.48 2060.99 1160.06 2060.44 1159.82 2059.77C1085.93 1843.12 1086.73 1676.86 1162.22 1565.6C1192.54 1520.9 1230.64 1489.98 1267.5 1460.08C1323.3 1414.79 1376 1372.02 1399.38 1286.09C1419.6 1211.79 1408.7 1131.42 1402.19 1083.4C1397.48 1048.58 1393.49 1020.52 1389.97 995.746C1380.95 932.1 1375.98 897.03 1373.69 853.144C1367.82 739.97 1416.73 619.619 1519.06 495.425C1520.2 494.034 1522.25 493.863 1523.66 494.978C1525.03 496.12 1525.24 498.18 1524.09 499.57C1422.83 622.466 1374.41 741.308 1380.2 852.803C1382.47 896.401 1387.43 931.366 1396.43 994.841C1399.95 1019.61 1403.93 1047.68 1408.64 1082.51C1415.23 1131.04 1426.23 1212.24 1405.68 1287.8C1381.75 1375.76 1328.24 1419.17 1271.61 1465.14C1235.12 1494.74 1197.4 1525.35 1167.62 1569.26C1093.34 1678.74 1092.79 1843.05 1165.99 2057.67C1166.58 2059.38 1165.66 2061.23 1163.97 2061.81C1162.93 2062.16 1161.84 2061.96 1161.02 2061.37Z" fill="white"/>
<path d="M1333.2 887.243C1255.86 832.06 1227.94 775.735 1218.63 735.575C1206.65 683.855 1221.63 647.867 1222.27 646.358C1222.97 644.705 1224.88 643.931 1226.54 644.639C1228.2 645.335 1228.97 647.263 1228.27 648.916C1228.11 649.271 1213.42 684.774 1225.08 734.525C1235.87 780.55 1272.09 848.591 1383.35 911.253C1384.94 912.145 1385.47 914.126 1384.58 915.7C1383.7 917.262 1381.72 917.813 1380.15 916.934C1362.76 907.146 1347.18 897.201 1333.2 887.243Z" fill="white"/>
<path d="M1411.22 1156.89C1410.36 1156.27 1409.81 1155.26 1409.85 1154.12C1409.92 1152.32 1411.41 1150.92 1413.21 1150.97C1555.66 1155.59 1573.71 905.873 1573.88 903.354C1574 901.557 1575.55 900.193 1577.34 900.311C1579.14 900.429 1580.49 901.977 1580.39 903.774C1580.33 904.417 1575.9 968.824 1553.4 1031.79C1523.31 1116.02 1474.77 1159.48 1413.01 1157.49C1412.33 1157.46 1411.73 1157.25 1411.22 1156.89Z" fill="white"/>
<path d="M1186.67 1539.47C1186.39 1539.28 1186.15 1539.04 1185.94 1538.76C1108.82 1435.56 1102.3 1341.91 1110.41 1281.53C1119.22 1216.01 1145.91 1175.56 1147.06 1173.86C1148.05 1172.37 1150.07 1171.98 1151.57 1172.97C1153.09 1173.9 1153.47 1176 1152.48 1177.5C1152.2 1177.91 1125.38 1218.6 1116.83 1282.72C1108.96 1341.83 1115.46 1433.55 1191.17 1534.86C1192.24 1536.31 1191.95 1538.35 1190.51 1539.43C1189.34 1540.3 1187.79 1540.27 1186.67 1539.47Z" fill="white"/>
<path d="M1111.45 1855.16C1110.35 1854.38 1109.81 1852.95 1110.22 1851.58C1110.73 1849.85 1112.54 1848.87 1114.27 1849.38C1268.06 1895.06 1390.51 1802.32 1466.16 1716.47C1548.48 1623.07 1594.75 1517.47 1595.21 1516.42C1595.93 1514.76 1597.85 1514.02 1599.5 1514.72C1601.16 1515.43 1601.92 1517.36 1601.2 1519.01C1600.74 1520.08 1554.04 1626.61 1471.06 1720.79C1422.21 1776.21 1370.52 1816.6 1317.39 1840.86C1250.8 1871.28 1181.82 1876.25 1112.41 1855.64C1112.06 1855.52 1111.74 1855.37 1111.45 1855.16Z" fill="white"/>
</g>
</g>
</g>
<path d="M1555.48 2334.28C1648.81 2229.78 1580.77 1984.7 1494.65 1844.81C1439.33 1754.97 1395.85 1739.85 1370.99 1648.94C1336.62 1523.29 1399.28 1477.61 1368.39 1345.78C1340.26 1225.71 1281.98 1233.6 1245.42 1111.18C1202.4 967.144 1275.7 921.526 1248.03 780.878C1216.93 622.821 1078.74 448.507 952.499 464.71C867.375 475.639 793.864 572.4 775.745 664.569C747.72 806.987 868.373 854.941 874.145 1034.7C875.366 1072.67 871.364 1102.24 864.489 1127.3C843.799 1202.69 815.341 1250.41 798.101 1281.66C735.138 1395.82 753.021 1527.81 759.896 1578.61C777.975 1712.04 838.446 1713.34 896.384 1882.87C956.028 2057.44 906.382 2098.38 956.08 2188.53C1062.26 2381.16 1438.43 2465.35 1555.48 2334.28Z" fill="url(#paint5_linear_6_2)"/>
<mask id="mask1_6_2" style="mask-type:luminance" maskUnits="userSpaceOnUse" x="747" y="463" width="880" height="2005">
<path d="M1580.14 2401.6C1676.82 2293.34 1606.33 2039.44 1517.11 1894.52C1459.81 1801.44 1414.76 1785.79 1388.99 1691.6C1353.4 1561.42 1418.3 1514.09 1386.3 1377.53C1357.16 1253.14 1296.8 1261.31 1258.91 1134.48C1214.34 985.263 1290.29 938.005 1261.62 792.293C1229.4 628.554 1086.23 447.956 955.451 464.75C867.27 476.073 791.108 576.323 772.334 671.798C743.299 819.347 868.307 869.019 874.277 1055.25C875.536 1094.59 871.403 1125.22 864.279 1151.18C842.841 1229.28 813.36 1278.72 795.504 1311.1C730.271 1429.37 748.783 1566.1 755.92 1618.73C774.643 1756.96 837.304 1758.3 897.316 1933.95C959.111 2114.8 907.667 2157.22 959.151 2250.6C1069.16 2450.16 1458.87 2537.38 1580.14 2401.6Z" fill="white"/>
</mask>
<g mask="url(#mask1_6_2)">
<g style="mix-blend-mode:soft-light" opacity="0.7">
<g style="mix-blend-mode:soft-light">
<path d="M1524.44 2516.8C1523.89 2516.8 1523.37 2516.65 1522.87 2516.36C1345.92 2410.52 1239.36 2287.41 1206.12 2150.43C1189.55 2082.13 1194.26 2031.62 1199.26 1978.15C1204.73 1919.44 1210.4 1858.73 1189 1767.48C1167.23 1674.62 1132.37 1635.42 1098.66 1597.51C1067.02 1561.94 1034.32 1525.16 1014.32 1444.74C984.944 1326.65 1002.63 1244.27 1021.34 1157.06C1036.57 1086.08 1052.33 1012.68 1044.86 913.47C1032.4 748.039 950.15 582.936 800.384 422.753C799.216 421.506 799.282 419.565 800.528 418.397C801.762 417.242 803.717 417.308 804.884 418.554C955.634 579.787 1038.43 746.137 1051 912.998C1058.53 1013.12 1042.69 1086.94 1027.36 1158.34C1008.8 1244.84 991.268 1326.54 1020.29 1443.26C1039.92 1522.19 1070.7 1556.79 1103.26 1593.42C1137.49 1631.9 1172.88 1671.69 1195.01 1766.08C1216.63 1858.3 1210.91 1919.52 1205.39 1978.72C1200.45 2031.67 1195.78 2081.67 1212.11 2148.98C1244.93 2284.28 1350.55 2406.12 1526.03 2511.08C1527.49 2511.94 1527.96 2513.83 1527.09 2515.3C1526.52 2516.26 1525.49 2516.8 1524.44 2516.8Z" fill="white"/>
<path d="M1047.93 916.317C1047.68 916.317 1047.42 916.287 1047.16 916.226C913.427 882.074 832.961 798.42 788.996 734.237C741.396 664.74 725.167 602.38 724.996 601.763C724.576 600.11 725.573 598.431 727.227 598.011C728.893 597.591 730.546 598.588 730.966 600.228C731.123 600.845 747.169 662.326 794.218 730.957C837.567 794.183 916.904 876.603 1048.69 910.256C1050.33 910.676 1051.33 912.342 1050.91 913.995C1050.56 915.386 1049.31 916.317 1047.93 916.317Z" fill="white"/>
<path d="M1043.7 1509.21C1042.41 1509.21 1041.22 1508.41 1040.78 1507.13C1040.23 1505.53 1041.09 1503.77 1042.7 1503.22C1176.2 1457.52 1240.09 1325.81 1270.19 1223.37C1302.9 1112.02 1303.88 1010.3 1303.88 1009.27C1303.89 1007.58 1305.27 1006.22 1306.96 1006.22C1306.97 1006.22 1306.98 1006.22 1306.98 1006.22C1308.68 1006.23 1310.06 1007.62 1310.05 1009.31C1310.03 1010.34 1309.05 1112.94 1276.11 1225.1C1245.59 1328.94 1180.68 1462.51 1044.69 1509.04C1044.36 1509.16 1044.03 1509.21 1043.7 1509.21Z" fill="white"/>
<path d="M1207.09 1859.22C1207.03 1859.21 1206.97 1859.21 1206.9 1859.21C1111.66 1853.39 1026.26 1826.67 953.102 1779.78C894.573 1742.25 843.72 1691.82 801.945 1629.89C730.887 1524.51 710.525 1420.81 710.328 1419.77C710.013 1418.11 711.102 1416.49 712.768 1416.18C714.461 1415.86 716.061 1416.95 716.376 1418.62C716.573 1419.64 736.765 1522.29 807.18 1626.64C872.059 1722.76 994.129 1840.06 1207.28 1853.05C1208.97 1853.16 1210.27 1854.63 1210.16 1856.32C1210.06 1857.96 1208.71 1859.22 1207.09 1859.22Z" fill="white"/>
<path d="M1295.89 2325.83C1294.62 2325.83 1293.41 2325.02 1292.98 2323.75C1292.43 2322.13 1293.29 2320.39 1294.91 2319.84C1448.11 2267.92 1498.24 2127.68 1513.33 2019.17C1529.73 1901.18 1509.46 1794.2 1509.25 1793.12C1508.92 1791.45 1510.02 1789.84 1511.69 1789.51C1513.36 1789.18 1514.97 1790.29 1515.3 1791.95C1515.51 1793.03 1535.98 1901.02 1519.43 2020.02C1509.7 2090.05 1489.24 2150.18 1458.65 2198.74C1420.3 2259.59 1365.87 2302.3 1296.89 2325.68C1296.56 2325.78 1296.22 2325.83 1295.89 2325.83Z" fill="white"/>
</g>
</g>
</g>
<path d="M1119.07 2452.9C977.624 2462.56 874.329 2367.75 849.493 2344.96C834.995 2331.65 718.712 2221.74 711.902 2058.88C705.788 1912.55 793.522 1854.59 755.605 1712.73C738.641 1649.26 705.132 1601.19 702.049 1596.84C643.704 1514.54 595.16 1524.21 553.543 1456.88C509.013 1384.84 520.467 1302.35 527.933 1248.61C537.064 1182.9 545.448 1122.55 595.422 1088.14C644.255 1054.5 717.465 1056.18 768.502 1086.34C847 1132.72 814.606 1211.93 906.998 1308.4C965.317 1369.29 992.58 1352.72 1034.88 1412.52C1080.87 1477.52 1063.74 1518.45 1098.24 1593.12C1133.35 1669.12 1180.03 1689.38 1248.03 1753.42C1312.83 1814.44 1451.43 1944.95 1456.14 2090.84C1461.31 2250.45 1306.6 2440.08 1119.07 2452.9Z" fill="url(#paint6_linear_6_2)"/>
<mask id="mask2_6_2" style="mask-type:luminance" maskUnits="userSpaceOnUse" x="522" y="1064" width="935" height="1392">
<path d="M1119.06 2454.7C977.61 2464.21 874.421 2369.3 849.598 2346.47C835.113 2333.16 718.961 2223.12 712.322 2060.24C706.366 1913.92 794.152 1856.04 756.393 1714.15C739.494 1650.66 706.038 1602.55 702.968 1598.21C644.701 1515.84 596.157 1525.46 554.619 1458.08C510.155 1385.99 521.7 1303.52 529.218 1249.78C538.415 1184.08 546.865 1123.75 596.879 1089.38C645.751 1055.8 718.961 1057.55 769.972 1087.77C848.417 1134.24 815.931 1213.41 908.218 1309.97C966.471 1370.94 993.748 1354.4 1035.99 1414.24C1081.9 1479.29 1064.75 1520.21 1099.15 1594.9C1134.17 1670.95 1180.84 1691.25 1248.78 1755.36C1313.51 1816.46 1451.97 1947.11 1456.53 2093.01C1461.52 2252.61 1306.61 2442.09 1119.06 2454.7Z" fill="white"/>
</mask>
<g mask="url(#mask2_6_2)">
<g style="mix-blend-mode:soft-light" opacity="0.7">
<g style="mix-blend-mode:soft-light">
<path d="M1262.17 2480.51C1261.52 2480.51 1260.85 2480.31 1260.27 2479.9C1074.29 2346.46 978.371 2210.64 975.196 2076.24C973.924 2022.24 986.978 1974.92 999.613 1929.19C1018.73 1859.91 1036.8 1794.48 1005.91 1710.96C979.224 1638.74 923.674 1579.64 890.48 1544.32C866.405 1518.73 846.869 1498.19 829.629 1480.07C785.296 1433.5 760.893 1407.84 733.537 1373.43C663.03 1284.73 632.933 1158.34 644.098 997.806C644.229 996.022 645.803 994.684 647.575 994.789C649.372 994.907 650.737 996.468 650.605 998.265C639.558 1157.12 669.17 1281.99 738.641 1369.38C765.813 1403.56 790.151 1429.14 834.352 1475.57C851.592 1493.69 871.141 1514.24 895.216 1539.85C928.751 1575.54 984.879 1635.25 1012.04 1708.69C1043.64 1794.2 1025.3 1860.61 1005.9 1930.92C993.394 1976.21 980.457 2023.04 981.717 2076.08C984.84 2208.33 1079.84 2342.42 1264.07 2474.6C1265.54 2475.65 1265.87 2477.69 1264.82 2479.16C1264.19 2480.03 1263.18 2480.51 1262.17 2480.51Z" fill="white"/>
<path d="M720.378 1424.71C625.375 1424.71 569.93 1395.08 539.032 1367.79C499.226 1332.67 490.527 1294.66 490.173 1293.06C489.779 1291.3 490.895 1289.57 492.653 1289.18C494.398 1288.78 496.143 1289.91 496.536 1291.66C496.615 1292.04 505.287 1329.48 543.664 1363.2C579.18 1394.4 648.191 1428.74 775.154 1415.14C776.965 1414.95 778.552 1416.25 778.736 1418.03C778.933 1419.83 777.634 1421.43 775.85 1421.62C756.012 1423.75 737.552 1424.71 720.378 1424.71Z" fill="white"/>
<path d="M940.507 1598.9C939.457 1598.9 938.421 1598.39 937.791 1597.45C936.794 1595.95 937.201 1593.93 938.696 1592.93C1057.33 1513.95 926.98 1300.2 925.655 1298.05C924.71 1296.51 925.183 1294.5 926.718 1293.56C928.24 1292.61 930.247 1293.09 931.205 1294.61C931.546 1295.16 965.33 1350.16 983.593 1414.49C1008.02 1500.53 993.748 1564.11 942.304 1598.35C941.736 1598.72 941.137 1598.9 940.507 1598.9Z" fill="white"/>
<path d="M979.92 2040.76C979.596 2040.76 979.268 2040.71 978.936 2040.6C856.197 2001.39 796.501 1928.95 768.03 1875.08C737.145 1816.63 735.387 1768.19 735.335 1766.16C735.282 1764.36 736.686 1762.86 738.484 1762.81C740.268 1762.68 741.79 1764.18 741.843 1765.96C741.856 1766.45 743.666 1815.17 773.947 1872.33C801.867 1925 860.435 1995.9 980.917 2034.4C982.635 2034.95 983.58 2036.79 983.029 2038.49C982.583 2039.88 981.31 2040.76 979.92 2040.76Z" fill="white"/>
<path d="M1102.05 2341.43C1100.69 2341.43 1099.43 2340.58 1098.97 2339.24C1098.38 2337.54 1099.29 2335.67 1100.99 2335.1C1252.71 2282.96 1298.53 2136.33 1310.26 2022.51C1323.01 1898.67 1299.34 1785.84 1299.11 1784.71C1298.72 1782.95 1299.85 1781.22 1301.61 1780.84C1303.37 1780.45 1305.1 1781.59 1305.48 1783.35C1305.72 1784.49 1329.6 1898.33 1316.74 2023.18C1309.17 2096.67 1290.55 2159.58 1261.4 2210.18C1224.85 2273.63 1171.59 2317.73 1103.1 2341.26C1102.75 2341.38 1102.4 2341.43 1102.05 2341.43Z" fill="white"/>
</g>
</g>
</g>
<path d="M551.877 2538.56C539.321 2538.06 528.024 2536.67 517.856 2534.44C338.137 2495.21 515.245 2202.15 515.245 2202.15C526.109 2181.57 540.606 2143.74 557.951 2115.58C557.96 2115.55 557.973 2115.52 557.991 2115.49C587.091 2068.34 624.116 2048.44 665.405 2182.39C731.294 2396.38 786.228 2547.8 551.877 2538.56Z" fill="url(#paint7_linear_6_2)"/>
<path style="mix-blend-mode:multiply" opacity="0.3" d="M551.877 2538.56C539.321 2538.06 528.024 2536.67 517.856 2534.44C575.322 2513.77 631.581 2388.25 631.581 2301.63C631.581 2206.6 557.951 2115.58 557.951 2115.58C557.96 2115.55 557.973 2115.52 557.991 2115.49C587.091 2068.34 624.116 2048.44 665.405 2182.39C731.294 2396.38 786.228 2547.8 551.877 2538.56Z" fill="url(#paint8_linear_6_2)"/>
<path d="M3364.05 2628.11C3342.32 2627.14 3322.79 2624.45 3305.18 2620.16C2994.21 2544.66 3300.67 1980.62 3300.67 1980.62C3319.47 1941.01 3344.55 1868.19 3374.56 1814.02C3374.56 1813.95 3374.62 1813.9 3374.62 1813.84C3424.98 1723.08 3489.04 1684.79 3560.48 1942.61C3674.5 2354.46 3769.55 2645.89 3364.05 2628.11Z" fill="url(#paint9_linear_6_2)"/>
<path style="mix-blend-mode:multiply" opacity="0.3" d="M3364.05 2628.11C3342.32 2627.14 3322.79 2624.45 3305.18 2620.16C3404.63 2580.38 3501.95 2338.8 3501.95 2172.08C3501.95 1989.19 3374.56 1814.02 3374.56 1814.02C3374.56 1813.95 3374.62 1813.9 3374.62 1813.84C3424.98 1723.08 3489.04 1684.79 3560.48 1942.61C3674.5 2354.46 3769.55 2645.89 3364.05 2628.11Z" fill="url(#paint10_linear_6_2)"/>
<path d="M2730.03 1093.48C2730.03 1093.48 2791.06 975.253 2895.66 1021.09C3000.27 1066.94 2990.59 1042.87 3063.23 1052.01C3135.88 1061.12 3225.78 1111.54 3167.27 1121.69C3108.76 1131.84 2650.62 1143.47 2650.62 1143.47C2650.62 1143.47 2657.39 1099.67 2730.03 1093.48Z" fill="white"/>
<path d="M1671.78 2519.8L1041.1 2549.48V1745.52H1671.78V2519.8Z" fill="white"/>
<path d="M1322.89 1867.75V2485.64L1172.47 2499.03L1090.3 2506.37V1871.24L1322.89 1867.75Z" fill="url(#paint11_linear_6_2)"/>
<path d="M1595.75 1863.81V2462.18L1372.09 2481.58V1867.06L1595.75 1863.81Z" fill="url(#paint12_linear_6_2)"/>
<path style="mix-blend-mode:multiply" opacity="0.3" d="M1322.89 2280.99V2485.64L1172.47 2499.03C1131.77 2500.07 1103.72 2502.23 1090.3 2503.93V1991.86C1130.56 2008.75 1207.08 2055.94 1246.7 2187.08C1260.82 2233.84 1282.64 2261.82 1322.89 2280.99Z" fill="url(#paint13_linear_6_2)"/>
<path style="mix-blend-mode:multiply" opacity="0.3" d="M1595.75 2439.21V2462.18L1372.09 2481.58V2303.29C1457.08 2332.29 1559.96 2340.91 1595.75 2439.21Z" fill="url(#paint14_linear_6_2)"/>
<path d="M1828.21 2423.16L1115.06 2449.16L240.721 2539.53L248.055 2506.38L52.5786 2505.37V2558.99L52.4211 2559.01L772.727 2811.57L1801.5 2691.5L3063.36 2959.86L3653.29 2617.66V2565.54L1828.21 2423.16Z" fill="url(#paint15_linear_6_2)"/>
<path d="M3064.27 2907.72L3655.11 2565.54L3521.44 2553.49L1829.12 2371.02L1115.52 2397.02L54.5991 2506.88L772.727 2750.44L1801.5 2639.38L3064.27 2907.72Z" fill="#97A6B7"/>
<path style="mix-blend-mode:multiply" opacity="0.5" d="M1801.5 2639.38V2691.5L3062.86 2959.86V2906.39L1801.5 2639.38Z" fill="url(#paint16_linear_6_2)"/>
<path d="M772.727 2750.44V2811.57L51.5684 2559L53.3133 2506.88L772.727 2750.44Z" fill="url(#paint17_linear_6_2)"/>
<path d="M1041.1 2550.65H956.12V1870.76H1041.1V2550.65Z" fill="url(#paint18_linear_6_2)"/>
<path d="M3152.32 1026.32V1824.03L2649.35 1821.3L2615.57 1821.14V881.234L2649.35 889.972L3152.32 1026.32Z" fill="url(#paint19_linear_6_2)"/>
<path d="M2597.68 2588.31L1980.42 2523.82V1741.05H2597.68V2588.31Z" fill="#97A6B7"/>
<path d="M2503.75 1942.9V2593.35L2322.84 2570.25L2184.23 2537.16L2092.24 2540.57L2078.58 2538.97L2043.04 2534.33V1928.62L2503.75 1942.9Z" fill="white"/>
<path d="M2284.58 1990.25V2565.53L2180.87 2552.09L2092.24 2540.57V1982.6L2107.6 1983.28L2284.58 1990.25Z" fill="url(#paint20_linear_6_2)"/>
<path d="M2530.58 2000.08V2597.6L2320.36 2570.73V1991.82L2501.67 1998.96L2530.58 2000.08Z" fill="url(#paint21_linear_6_2)"/>
<path d="M294.119 1898.81V2499.72L356.742 2515.79V2044.07L660.905 2043.73V2582.44L754.831 2605.62V1864.44L294.119 1898.81Z" fill="url(#paint22_linear_6_2)"/>
<path d="M423.838 2510.71L356.742 2517.1V2032.81L423.838 2032.15V2510.71Z" fill="url(#paint23_linear_6_2)"/>
<path d="M3094.17 1624.92L2722.92 1598.42V1090.83L3094.17 1167.67V1624.92Z" fill="white"/>
<path d="M2901.84 1176.27V1562.81L2754.23 1550.45V1147.99L2795.6 1155.77L2901.84 1176.27Z" fill="url(#paint24_linear_6_2)"/>
<path d="M3062.86 1207.7V1576.68L2928.67 1565.41V1182.08L3062.86 1207.7Z" fill="url(#paint25_linear_6_2)"/>
<path style="mix-blend-mode:multiply" opacity="0.3" d="M2864.75 1280.92C2871.29 1308.8 2883.95 1332.81 2901.84 1354.24V1562.81L2754.23 1550.45V1147.99L2795.1 1155.77C2819.59 1173.81 2848.04 1209.75 2864.75 1280.92Z" fill="url(#paint26_linear_6_2)"/>
<path style="mix-blend-mode:multiply" opacity="0.3" d="M3062.86 1506.87V1576.68L2928.67 1565.41V1385.52C2977.87 1432.07 3036.02 1466.64 3062.86 1506.87Z" fill="url(#paint27_linear_6_2)"/>
<path style="mix-blend-mode:multiply" opacity="0.3" d="M2530.58 2438.39V2597.6L2320.36 2570.73V2570.25L2180.71 2552.09L2092.24 2540.57V1982.6L2108.46 1983.28C2152.72 2008.42 2217.92 2070.98 2254.81 2225.86C2262.16 2256.65 2272.88 2281.04 2286.59 2300.76C2297.18 2316.01 2309.22 2328.47 2322.54 2338.98C2374.95 2380.28 2444.49 2391.12 2502.76 2421.39C2512.49 2426.41 2521.63 2432.02 2530.58 2438.39Z" fill="url(#paint28_linear_6_2)"/>
<path d="M2615.57 1861.24L956.12 1877.27V1180.42L2615.57 874.726V1861.24Z" fill="url(#paint29_linear_6_2)"/>
<path d="M2651.35 889.972V1870.76H2615.57V881.234L2651.35 889.972Z" fill="url(#paint30_linear_6_2)"/>
<path d="M1604.68 1681.23L1050.05 1730.22V1304.3L1604.68 1221.71V1681.23Z" fill="white"/>
<path d="M1215.54 1323.43V1672.13L1085.82 1684.92V1342.76L1126.02 1336.71L1215.54 1323.43Z" fill="url(#paint31_linear_6_2)"/>
<path d="M1385.51 1298.65V1655.77L1242.39 1669.32V1319.22L1385.51 1298.65Z" fill="url(#paint32_linear_6_2)"/>
<path d="M1568.91 1272.75V1638.64L1421.31 1652.84V1294.2L1568.91 1272.75Z" fill="url(#paint33_linear_6_2)"/>
<path style="mix-blend-mode:multiply" opacity="0.4" d="M1149.38 1357.89C1200.55 1410.58 1193.19 1453.45 1215.54 1476.74V1672.13L1085.82 1684.92V1342.76L1126.02 1336.71C1133.61 1341.8 1140.52 1348.74 1149.38 1357.89Z" fill="url(#paint34_linear_6_2)"/>
<path style="mix-blend-mode:multiply" opacity="0.4" d="M1313.94 1494.8C1338.45 1493.19 1363.16 1492.11 1385.51 1491.99V1655.77L1242.39 1669.32V1491.91C1255.8 1495.83 1280.58 1496.96 1313.94 1494.8Z" fill="url(#paint35_linear_6_2)"/>
<path style="mix-blend-mode:multiply" opacity="0.4" d="M1568.91 1529.88V1638.64L1421.31 1652.84V1492.43C1479.45 1494.56 1533.13 1504.46 1568.91 1529.88Z" fill="url(#paint36_linear_6_2)"/>
<path d="M2504.01 1575.59L1949.38 1624.58V1198.66L2504.01 1116.07V1575.59Z" fill="white"/>
<path d="M2114.87 1217.79V1566.48L1985.15 1579.28V1237.12L2025.35 1231.07L2114.87 1217.79Z" fill="url(#paint37_linear_6_2)"/>
<path d="M2284.84 1193.01V1550.12L2141.72 1563.68V1213.58L2284.84 1193.01Z" fill="url(#paint38_linear_6_2)"/>
<path d="M2468.24 1167.11V1533L2320.64 1547.2V1188.56L2468.24 1167.11Z" fill="url(#paint39_linear_6_2)"/>
<path style="mix-blend-mode:multiply" opacity="0.4" d="M2048.71 1252.24C2099.88 1304.93 2092.52 1347.81 2114.87 1371.1V1566.48L1985.15 1579.28V1237.12L2025.35 1231.07C2032.94 1236.16 2039.85 1243.1 2048.71 1252.24Z" fill="url(#paint40_linear_6_2)"/>
<path style="mix-blend-mode:multiply" opacity="0.4" d="M2213.27 1389.15C2237.78 1387.55 2262.49 1386.46 2284.84 1386.34V1550.12L2141.72 1563.68V1386.27C2155.13 1390.19 2179.91 1391.32 2213.27 1389.15Z" fill="url(#paint41_linear_6_2)"/>
<path style="mix-blend-mode:multiply" opacity="0.4" d="M2468.24 1424.24V1533L2320.64 1547.2V1386.79C2378.78 1388.92 2432.46 1398.82 2468.24 1424.24Z" fill="url(#paint42_linear_6_2)"/>
<path fill-rule="evenodd" clip-rule="evenodd" d="M1980.42 1873.9V2523.82L754.831 2605.62V1863.73L1980.42 1873.9ZM1537.6 2019.82L965.068 2037.7V2406.54L1537.6 2366.24V2019.82Z" fill="url(#paint43_linear_6_2)"/>
<path d="M2608.39 890.759L2798.76 357.9L3217.25 988.438L2608.39 890.759Z" fill="url(#paint44_linear_6_2)"/>
<path d="M2798.76 357.9L1440.37 671.155L870.682 1199.47L2608.38 890.759L2798.76 357.9Z" fill="url(#paint45_linear_6_2)"/>
<path d="M1685.43 432.461L1684.23 495.32L2025.97 951.23L2213.46 960.925L2193.06 551.815L1685.43 432.461Z" fill="url(#paint46_linear_6_2)"/>
<path d="M2031.32 1182.08L2046.02 986.155L1684.23 495.32L1457.41 1096.32L1486.51 1182.08H2031.32Z" fill="url(#paint47_linear_6_2)"/>
<path d="M1685.43 431.871L1432.41 1100.63L1457.41 1096.32L1705.13 542.736L1685.43 431.871Z" fill="url(#paint48_linear_6_2)"/>
<path d="M3217.25 988.438L2618.57 857.631L2193.06 938.503L2048.71 948.33L1685.43 431.871L1369.56 1115.57L1431.62 1102.43L1687.03 517.401L2037.36 997.989L2193.06 989.422L2603.62 904.535L3217.25 1032.63V988.438Z" fill="white"/>
<path d="M870.682 1199.47V1231.13L1432.41 1140.53L1431.53 1098.33L870.682 1199.47Z" fill="white"/>
<path d="M3040.49 2788.08L2284.58 2659.95V1830.89L3040.49 1779.61V2788.08Z" fill="url(#paint49_linear_6_2)"/>
<path d="M3519.1 2560.79L3040.49 2788.08V1778.21L3519.1 1813.9V2560.79Z" fill="url(#paint50_linear_6_2)"/>
<path d="M2928.67 2600.86L2356.14 2520.5V1957.25L2928.67 1976.51V2600.86Z" fill="white"/>
<path d="M2526.11 2020.98V2485.87L2382.98 2467.95V2014.88L2422.38 2016.53L2526.11 2020.98Z" fill="url(#paint51_linear_6_2)"/>
<path d="M2700.55 2028.83V2508.9L2552.95 2489.73V2022.3L2700.55 2028.83Z" fill="url(#paint52_linear_6_2)"/>
<path d="M2888.42 2037.22V2533.39L2731.87 2513.07V2030.28L2888.42 2037.22Z" fill="url(#paint53_linear_6_2)"/>
<path style="mix-blend-mode:multiply" opacity="0.3" d="M2526.11 2160.28V2485.87L2382.98 2467.95V2014.88L2422.38 2016.53C2451.67 2038.78 2494.8 2081.52 2526.11 2160.28Z" fill="url(#paint54_linear_6_2)"/>
<path style="mix-blend-mode:multiply" opacity="0.3" d="M2700.55 2326.87V2508.9L2552.95 2489.73V2229.18C2579.78 2277.95 2637.93 2303.37 2700.55 2326.87Z" fill="url(#paint55_linear_6_2)"/>
<path style="mix-blend-mode:multiply" opacity="0.3" d="M2888.42 2440.44V2533.39L2731.87 2513.07V2339.54C2790.02 2363.57 2852.64 2389.56 2888.42 2440.44Z" fill="url(#paint56_linear_6_2)"/>
<path d="M334.949 1877.55L240.878 1905.82V1943.92L754.831 1910.73L1980.42 1905.82C1980.42 1905.82 1985.61 1867.01 1980.42 1867.38C1975.22 1867.73 1664.71 1840.47 1664.71 1840.47C1664.71 1840.47 561.205 1833.11 556.587 1835.42C551.969 1837.73 334.949 1877.55 334.949 1877.55Z" fill="white"/>
<path d="M672.883 1775.11C669.42 1775.97 550.224 1774.62 539.846 1776.55C534.27 1777.57 237.415 1905.82 240.878 1905.82C244.342 1905.82 752.207 1870.76 752.207 1870.76L672.883 1775.11Z" fill="url(#paint57_linear_6_2)"/>
<path d="M752.207 1870.76L1980.42 1867.38C1980.42 1867.38 1756.63 1761.54 1744.94 1760.02C1733.25 1758.48 539.845 1776.55 539.845 1776.55L752.207 1870.76Z" fill="url(#paint58_linear_6_2)"/>
<path d="M2350.94 1795.01L2268.42 1807.71V1844.64L3040.49 1823.43L3551.42 1853.26V1813.9L3123.76 1759.93L2350.94 1795.01Z" fill="white"/>
<path d="M3551.42 1813.9C3528.29 1812.17 3028.95 1780.39 3028.95 1780.39C3028.95 1780.39 3057.12 1752.88 3069.66 1741.05C3082.2 1729.21 3250.73 1684.92 3250.73 1684.92L3551.42 1813.9Z" fill="url(#paint59_linear_6_2)"/>
<path d="M2268.42 1807.71L3028.95 1780.39L3250.73 1684.92L2609.66 1708.44L2268.42 1807.71Z" fill="url(#paint60_linear_6_2)"/>
<path d="M3383.19 2578.92C3383.19 2578.92 3196.57 2922.34 3417.75 2932.06C3638.93 2941.78 3587.09 2782.81 3524.88 2558.18C3462.67 2333.55 3410.63 2521.07 3383.19 2578.92Z" fill="url(#paint61_linear_6_2)"/>
<path d="M1640.57 329.954C1640.57 329.954 1701 212.871 1804.6 258.266C1908.19 303.675 1898.6 279.849 1970.55 288.875C2042.49 297.915 2131.52 347.837 2073.58 357.887C2015.63 367.937 1561.91 379.456 1561.91 379.456C1561.91 379.456 1568.63 336.081 1640.57 329.954Z" fill="white"/>
<path d="M2356.19 3460.41L866.549 2859.43L1768.25 2755.14L3014.77 3051.82L2356.19 3460.41Z" fill="#D8DEE8"/>
<path d="M866.654 2859.28V2895.92L2355.84 3499.89L2356.19 3460.41L878.816 2858.73L866.654 2859.28Z" fill="url(#paint62_linear_6_2)"/>
<path d="M3015.36 3053.11L3011.93 3088.41L2355.84 3499.89L2356.19 3460.41L3015.36 3053.11Z" fill="url(#paint63_linear_6_2)"/>
<path d="M2360.94 3370.93L1021.69 2874.41L1767.23 2781.93L2900.04 3063.94L2360.94 3370.93Z" fill="url(#paint64_linear_6_2)"/>
<mask id="mask3_6_2" style="mask-type:luminance" maskUnits="userSpaceOnUse" x="1021" y="2781" width="1880" height="590">
<path d="M2360.94 3370.93L1021.69 2874.41L1767.23 2781.93L2900.04 3063.94L2360.94 3370.93Z" fill="white"/>
</mask>
<g mask="url(#mask3_6_2)">
<mask id="mask4_6_2" style="mask-type:luminance" maskUnits="userSpaceOnUse" x="1071" y="2774" width="2098" height="700">
<path d="M2352.99 3473.13L1071.25 2882.97L1604.92 2774.52L3168.14 3009.25L2352.99 3473.13Z" fill="white"/>
</mask>
<g mask="url(#mask4_6_2)">
<g style="mix-blend-mode:soft-light" opacity="0.2">
<path fill-rule="evenodd" clip-rule="evenodd" d="M3343.77 3008.74L2419.08 3603.86L1013.06 2884.37L1610.52 2764.66L3343.77 3008.74ZM2697.61 3007.04C2536.55 2993.86 2271.15 2961.96 2239.15 2986.97C2204.55 3014.01 2440.26 3073.94 2516.96 3110.67C2604.48 3152.57 2893.8 3105.38 2947.07 3057.86C2994.81 3015.27 2962.67 3001.23 2863.33 2979.73C2863.33 2979.73 2875.54 3021.61 2697.61 3007.04ZM2082.69 2966.65C1996.52 2935.2 1946.24 3004.22 2019.24 3030.15C2101.58 3059.38 2109.36 3097.15 2174.9 3111.65C2244.77 3127.1 2377.85 3089.79 2377.85 3089.79C2377.85 3089.79 2184.24 3003.7 2082.69 2966.65ZM2430 2909.21C2430 2909.21 2459.01 2929.83 2413.01 2943.24C2365.54 2957.08 2435.17 2970.04 2546.71 2966.57C2661.56 2962.99 2844.72 2981.41 2773.16 2960.19C2707.83 2940.83 2453 2896.87 2430 2909.21ZM2141.74 2896.73C2042 2914.13 1905.48 2923.48 2009.73 2935.59C2124.74 2948.96 2259.14 2933.35 2316.88 2938.35C2377.16 2943.57 2421.17 2897.67 2343.33 2889.83C2343.33 2889.83 2238.74 2879.82 2141.74 2896.73ZM2010.46 2839.05C2010.46 2839.05 2040.88 2853.26 2028.04 2865.82C2014.53 2879.06 2046.18 2888.24 2105.61 2886.23C2159.42 2884.42 2212.32 2873.27 2230.61 2872.99C2235 2873.57 2236.99 2873.76 2235.88 2873.43C2234.7 2873.09 2232.9 2872.97 2230.61 2872.99C2193.92 2868.19 2010.46 2839.05 2010.46 2839.05ZM1520.35 2896.99C1558.4 2901.19 1525.01 2861.86 1512.73 2855.35C1500.96 2849.09 1566.72 2835.84 1578.58 2828.27C1590.03 2820.97 1525.56 2826.17 1505.43 2824.46C1485.75 2822.78 1452.51 2813.22 1452.51 2813.22C1452.51 2813.22 1418.37 2839.14 1399.62 2850.32C1379.82 2862.13 1483.78 2892.96 1520.35 2896.99ZM1382.71 2839.18C1390.58 2829.4 1405.63 2820.46 1405.63 2820.46C1405.63 2820.46 1226.28 2857.2 1222.27 2860.56C1218.21 2863.97 1320.9 2867.14 1341.93 2864.39C1362.92 2861.65 1374.4 2849.54 1382.71 2839.18ZM1598.68 2884.88C1613.62 2893.84 1814.51 2878.3 1862.85 2877.18C1912.14 2876.05 1920.14 2869.83 1920.14 2869.83C1920.14 2869.83 1836.78 2852.63 1789.07 2856.58C1741.65 2860.52 1674.48 2855.23 1606.82 2846.06C1544.74 2837.64 1584.48 2876.35 1598.68 2884.88ZM1497.18 2909.1C1497.18 2909.1 1427.72 2944.51 1468.28 2950.91C1510.84 2957.63 1602.55 2966.82 1608.46 2955.69C1614.12 2945.02 1536.37 2895.72 1497.18 2909.1ZM1923.77 2918.8C2014.54 2909.69 1998 2887.51 1998 2887.51C1998 2887.51 1902.92 2887.53 1784.78 2888.75C1672.66 2889.91 1554.8 2901.22 1605.21 2920.59C1662.03 2942.44 1833.25 2927.88 1923.77 2918.8ZM1822.86 2826.9C1781.78 2829.32 1692.26 2826.69 1714.15 2839.87C1738.02 2854.23 1829.27 2848.84 1872.58 2855.93C1918.56 2863.44 1997.32 2865.57 1979.93 2851.39C1963.79 2838.24 1923.44 2816.45 1854.66 2819.37C1854.66 2819.37 1864.4 2824.46 1822.86 2826.9ZM1694.85 2790.92C1694.85 2790.92 1661.19 2817.39 1652.13 2820.61C1642.94 2823.86 1684.72 2831.04 1736.62 2825.85C1788.64 2820.67 1833.18 2822.51 1817.58 2815.33C1802.71 2808.48 1716.73 2793.74 1694.85 2790.92ZM1513.24 2801.83C1517.42 2814.4 1604.84 2830.28 1664.62 2808.08C1664.62 2808.08 1682.5 2775.55 1611.94 2784.58C1540.71 2793.7 1509.35 2790.23 1513.24 2801.83ZM1305.11 2910.78C1375.54 2902.11 1417.71 2893.96 1402.94 2882.53C1389.11 2871.84 1335.8 2875.92 1294.38 2876.94C1253.74 2877.97 1182.86 2866.09 1182.86 2866.09C1126.16 2876.22 1182.27 2903.53 1191.44 2912.98C1201.15 2922.98 1234.29 2919.51 1305.11 2910.78ZM1266.34 2924.91C1278.73 2927.95 1340.74 2948.2 1414.96 2938.42C1488.57 2928.73 1452.3 2898.28 1427.07 2894.75C1427.07 2894.75 1254.22 2921.93 1266.34 2924.91ZM1585.54 2974.87C1585.54 2974.87 1351.18 2956.88 1344.87 2956.41C1338.58 2955.95 1229.7 2925.58 1244.28 2936.63C1259.78 2948.37 1373.54 3000.51 1438.86 3019.74C1511.51 3041.13 1591.6 2989.84 1585.54 2974.87ZM1677.06 3014.84C1782.79 3028.48 1864.7 3050.52 1915.15 3017.54C1961.13 2987.47 1931.02 2941.65 1931.02 2941.65C1703.57 2912.51 1580.24 3002.35 1677.06 3014.84ZM1658.48 3082.13C1629.44 3073.22 1613.63 3001.23 1613.63 3001.23C1613.63 3001.23 1492.44 3038.45 1536.29 3059.77C1584.52 3083.22 1688.71 3091.39 1658.48 3082.13ZM1993.92 3107.48C1993.92 3107.48 2039.87 3066.83 1951.71 3056.72C1868.84 3047.19 1639.23 3042.07 1683.63 3061.6C1732.03 3082.86 1804.77 3153.66 1993.92 3107.48ZM2200.55 3342.51C2200.55 3342.51 2209.42 3151.97 2156.84 3134.06C2107.54 3117.25 1746.75 3203.49 1734.21 3144.02C1723.57 3093.6 1594.83 3146.39 1827.31 3224.91C2145.49 3332.39 2200.55 3342.51 2200.55 3342.51ZM2822.99 3170.3C2757.77 3172.84 2398 3136.7 2398 3136.7C2159.61 3092.17 2348.97 3266.1 2298.95 3361.04C2237.37 3477.9 2671.19 3230.27 2822.99 3170.3Z" fill="white"/>
</g>
<g opacity="0.2">
<path fill-rule="evenodd" clip-rule="evenodd" d="M2395.66 3612.46L1003.88 2885.42C1003.47 2885.21 1004.47 2884.78 1006.09 2884.45L1604.17 2764.83C1605.31 2764.61 1606.81 2764.5 1607.52 2764.6L3337.74 3008.8C3342.24 3009.43 3344.88 3010.6 3343.63 3011.41L2411.53 3613.13C2407.92 3615.45 2400.8 3615.15 2395.66 3612.46ZM1010.5 2884.62L2399.41 3599.35L3325.1 3010.55L1604.69 2765.61L1010.5 2884.62ZM1173.57 2931.72C1167.79 2929.04 1162.94 2925.93 1159.17 2922.5C1126.34 2892.57 1128.15 2888 1128.24 2887.82C1128.33 2887.64 1128.89 2887.39 1129.72 2887.18C1130.56 2886.95 1131.59 2886.78 1132.51 2886.72C1140.16 2886.12 1323.09 2871.87 1338.68 2876.01L1338.9 2876.06C1345.05 2877.98 1324.51 2885.71 1297.6 2895.81C1262.88 2908.85 1217.24 2925.99 1229.94 2931.43C1232.32 2932.45 1236.8 2933.05 1243.25 2933.18C1256.52 2933.45 1265.39 2934.36 1268.86 2935.79C1272.84 2937.44 1268.44 2939.37 1263.43 2940.54C1253.64 2942.79 1237.7 2943.55 1222.06 2942.52C1208.58 2941.63 1189.3 2939 1173.57 2931.72ZM1134.53 2887.78C1135.12 2889.91 1139.17 2897.33 1165.92 2921.2C1169.7 2924.57 1174.52 2927.63 1180.25 2930.24C1195.65 2937.27 1214.22 2939.78 1227.15 2940.63C1242.28 2941.61 1255.22 2940.68 1260.77 2939.41C1264.1 2938.63 1263.33 2937.86 1262.11 2937.35C1260.41 2936.64 1255.14 2935.41 1238.87 2935.05C1231.33 2934.9 1226.08 2934.17 1223.24 2932.95C1209.17 2926.84 1254.65 2909.82 1292.57 2895.64C1315.1 2887.2 1337.67 2878.77 1333.11 2877.32L1333.01 2877.3C1321.4 2874.18 1189.26 2883.56 1134.53 2887.78ZM1524.5 3065.81C1489.67 3050.63 1432.59 3024.95 1409.77 3010.01C1394.49 3000 1409.96 2992.09 1425.33 2987.23C1464.12 2974.99 1545.85 2968.35 1578.22 2970.53C1579.25 2970.61 1579.91 2970.82 1580.06 2971.12C1580.43 2971.89 1624.37 3063.12 1625.85 3066.36C1626.66 3067.33 1638.8 3074.38 1652.01 3082.08C1740.41 3133.51 1746.43 3140.46 1737.16 3143.58C1730.7 3145.75 1722.7 3143.6 1714.47 3141.03C1677.9 3129.56 1595.02 3096.56 1524.5 3065.81ZM1572.02 2972.76C1541.17 2971.04 1465.13 2977.33 1430.21 2988.39C1411.2 2994.41 1406.93 3001.02 1417.99 3008.16C1440.88 3022.9 1498.14 3048.31 1533.05 3063.33C1603.73 3093.74 1686.55 3126.3 1722.92 3137.55C1724.54 3138.06 1725.95 3138.47 1727.15 3138.79C1716.98 3128.32 1666.39 3098.44 1642.67 3084.41C1622.66 3072.6 1616.35 3068.81 1615.9 3067.76C1614.54 3064.67 1575.13 2979.46 1572.02 2972.76ZM1861.88 3204.43C1810.79 3182.46 1834.52 3158.67 1877.35 3121.37C1910.33 3092.65 1938.87 3078.89 1974.38 3073.86C2000.91 3070.11 2031.51 3071.44 2068.83 3078.05C2081.95 3080.37 2093.95 3083.11 2104.46 3086.21C2159.4 3102.39 2170.12 3126.34 2181.27 3151.25C2183.96 3157.23 2186.78 3163.53 2190.22 3169.59C2211.63 3207.37 2456.02 3326.81 2458.93 3328.22C2461.7 3329.57 2462.46 3331.36 2460.8 3332.64C2450.89 3340.29 2433.98 3344.75 2410.68 3345.82C2294.88 3351.12 2078.67 3277.66 1958.39 3236.79C1929.46 3226.96 1905.23 3218.72 1889.26 3214.01C1878.33 3210.8 1869.38 3207.66 1861.88 3204.43ZM2096.43 3089.14C2086.57 3086.2 2075.29 3083.59 2062.89 3081.37C2028.61 3075.23 2001.04 3073.9 1977.79 3077.2C1946.12 3081.68 1918.9 3095.22 1888.04 3122.46C1846.33 3159.3 1825.02 3180.86 1871.82 3200.71C1878.88 3203.7 1887.33 3206.63 1897.7 3209.64C1913.98 3214.38 1938.38 3222.57 1967.51 3232.34C2078.2 3269.48 2297.74 3343.15 2405.44 3338.17C2421.8 3337.42 2433.77 3334.73 2441.75 3330.02C2403.36 3310.9 2197.06 3207.08 2176.97 3170.4C2173.6 3164.22 2170.87 3157.88 2168.28 3151.85C2157.93 3127.72 2147.96 3104.47 2096.43 3089.14ZM1332.19 2975.5C1308.71 2965.44 1306.11 2949.42 1317.92 2946.62C1319.89 2946.15 1322.08 2945.96 1323.77 2946.11C1325.28 2946.24 1326.53 2946.62 1327.83 2947.4C1327.97 2947.49 1328.16 2947.57 1328.39 2947.66C1343.11 2953.53 1500.09 2960.58 1501.76 2960.66C1503 2960.72 1503.71 2960.99 1503.61 2961.37C1503.52 2961.75 1502.62 2962.19 1501.29 2962.5C1496.33 2963.65 1375.6 2991.51 1336.41 2977.17C1334.93 2976.63 1333.52 2976.07 1332.19 2975.5ZM1320.19 2948.66C1317.2 2952.45 1317.91 2964.55 1339.53 2973.69C1340.81 2974.24 1342.17 2974.78 1343.61 2975.29C1374.24 2986.37 1465.34 2968.1 1490.99 2962.58C1459.85 2961.11 1335.32 2954.9 1321.46 2949.31C1321.14 2949.18 1320.87 2949.05 1320.65 2948.92C1320.49 2948.82 1320.34 2948.74 1320.19 2948.66ZM1114.69 2882.17C1109.78 2880.07 1165.33 2867.92 1278.27 2843.92C1317.55 2835.58 1353.75 2827.87 1376.38 2822.71C1377.41 2822.47 1378.72 2822.33 1379.61 2822.35C1380.52 2822.36 1380.79 2822.55 1380.29 2822.8C1371.17 2827.35 1369.99 2850.43 1369.93 2851.88C1375.49 2855.62 1373.48 2858.86 1363.6 2861.74C1343.15 2867.69 1294.47 2870.24 1243.73 2872.9C1204.47 2874.95 1164.36 2877.05 1134.24 2880.87C1122.18 2882.39 1116.15 2882.8 1114.69 2882.17ZM1373.13 2824.52C1350.21 2829.69 1316.71 2836.81 1280.62 2844.5C1241.91 2852.74 1200.88 2861.48 1169.73 2868.47C1120.8 2879.44 1120.16 2880.8 1120.54 2880.97C1120.63 2881.01 1121.88 2881.33 1135.01 2879.66C1166.19 2875.72 1206.69 2873.6 1246.35 2871.51C1293.04 2869.06 1342.05 2866.49 1359.64 2861.38C1367.58 2859.07 1369.02 2856.17 1364.05 2852.82C1364 2852.78 1363.98 2852.74 1363.98 2852.7C1364.04 2851.7 1365.23 2831.4 1373.13 2824.52ZM1787.63 3137.31C1787.26 3137.16 1786.9 3137 1786.57 3136.81C1784.52 3135.69 1781.45 3134.1 1777.66 3132.14C1742.26 3113.89 1658.63 3070.78 1705.55 3041.94C1715.8 3035.63 1731.39 3031.46 1752.04 3029.43C1816.6 3023.09 1916.65 3039.67 1954.83 3051.14C1960.84 3052.94 1965.5 3054.66 1968.66 3056.23C1969.63 3056.72 1969.66 3057.37 1968.7 3057.94C1948.79 3069.86 1837.24 3135.59 1798.42 3138.43C1793.96 3138.74 1790.22 3138.36 1787.63 3137.31ZM1947 3053.72C1905.19 3041.02 1808.91 3026.79 1752.69 3032.31C1735.23 3034.02 1722.62 3037.42 1714.05 3042.73C1670.36 3069.82 1755.93 3113.33 1787.45 3129.35C1791.34 3131.33 1794.49 3132.93 1796.61 3134.07C1797.01 3134.26 1797.18 3134.32 1798.09 3134.26C1823.02 3132.44 1911.25 3085.05 1957.79 3057.56C1955.1 3056.37 1951.51 3055.1 1947 3053.72ZM1310.51 2929.62C1283.96 2919.39 1296.28 2907.78 1345.37 2894.09C1345.94 2893.93 1346.63 2893.8 1347.32 2893.71C1349.66 2893.41 1404.46 2886.35 1423.5 2892.08C1426.82 2893.08 1428.87 2894.42 1429.64 2896.09C1433.91 2905.44 1417.28 2938.67 1386.04 2944.91C1378.68 2946.36 1371.96 2946.19 1366.12 2944.39C1360.98 2942.82 1353.71 2941.13 1346.1 2939.37C1333.91 2936.55 1320.36 2933.41 1310.51 2929.62ZM1348.32 2894.94C1302.4 2907.88 1291.69 2918.4 1317.12 2928.09C1326.83 2931.79 1340.28 2934.86 1352.37 2937.62C1360.07 2939.4 1367.45 2941.07 1372.76 2942.69C1375.48 2943.52 1379.62 2944.33 1383.93 2943.48C1406.02 2939.08 1427.93 2908.59 1422.87 2897.06C1422.2 2895.55 1420.4 2894.35 1417.46 2893.46C1401.69 2888.66 1355.88 2894.03 1348.32 2894.94ZM1656.73 3019.4C1654.13 3018.49 1652.07 3017.49 1650.53 3016.38C1636.28 3006.14 1604.25 2977.19 1627.87 2968.4C1631 2967.24 1636.66 2965.82 1645.82 2965.65C1674.29 2965.14 1794.07 2981.48 1848.72 2997.03C1869.02 3002.79 1877.6 3007.65 1874.5 3011.77C1872.86 3013.93 1868.1 3015.78 1860.36 3017.24C1859.95 3017.32 1859.54 3017.38 1859.11 3017.42C1852.54 3018.1 1697.92 3033.77 1656.73 3019.4ZM1841.46 2999.2C1789.05 2984.14 1670.31 2967.54 1643.42 2968.01C1637.87 2968.1 1635.33 2968.82 1633.9 2969.36C1617.45 2975.52 1636.99 2998.93 1659.21 3014.65C1660.52 3015.57 1662.27 3016.41 1664.47 3017.17C1701.43 3029.91 1846.06 3015.82 1857.1 3014.72C1861.56 3013.84 1864.17 3012.84 1865.07 3011.67C1866.71 3009.55 1863.86 3005.64 1841.46 2999.2ZM1476.57 2950.51C1473.14 2949.33 1470.89 2947.97 1469.81 2946.44C1466.77 2942.07 1463.08 2938.08 1459.58 2934.31C1449.44 2923.32 1441.8 2915.08 1459.39 2907.78C1467.75 2904.3 1481.21 2901.31 1500.58 2898.61C1576.08 2888.02 1698.61 2888.1 1703.96 2888.1C1704.84 2888.1 1705.54 2888.19 1705.91 2888.36C1745.49 2906.14 1733.12 2925.55 1666.85 2940.5C1601.12 2955.32 1504.97 2960.26 1476.57 2950.51ZM1699.86 2889.84C1685.78 2889.85 1570.89 2890.29 1501.35 2900.04C1483.99 2902.46 1472.12 2905.07 1465.03 2908.04C1449.4 2914.56 1457.32 2922.92 1466.92 2933.07C1470.51 2936.85 1474.28 2940.84 1477.43 2945.23C1478.4 2946.57 1480.4 2947.76 1483.44 2948.79C1509.71 2957.7 1602.1 2952.8 1663.16 2939.08C1699.81 2930.83 1751.29 2913.55 1699.86 2889.84ZM2461.98 3286.46C2396.81 3264.18 2263.18 3157.99 2274.66 3142.99C2286.19 3127.94 2385.65 3129.44 2551.23 3137.01C2682.84 3143.02 2801.29 3140.85 2802.48 3140.83C2805.58 3140.78 2809.04 3141.34 2811.29 3142.26C2813.52 3143.18 2814.06 3144.27 2812.64 3145.03C2812.03 3145.35 2749.33 3178.76 2677.44 3213.67C2514.05 3293.01 2489.74 3291.16 2479.43 3290.37C2474.22 3289.98 2468.51 3288.69 2461.98 3286.46ZM2789.55 3146.06C2750.32 3146.4 2654.86 3146.55 2551.98 3141.76C2466.79 3137.78 2298.59 3129.94 2287.7 3144.49C2277.79 3157.74 2412.84 3261.91 2471.33 3281.67C2476.36 3283.38 2478.6 3283.61 2479.01 3283.64C2508.34 3284.73 2667.64 3209.97 2789.55 3146.06ZM1369.61 2874.11C1368.47 2873.77 1367.52 2873.4 1366.77 2873C1354.98 2866.68 1423.54 2848.87 1426.37 2848.13C1427.58 2847.82 1429.26 2847.63 1430.28 2847.71C1431.5 2847.8 1561.13 2857.33 1639.06 2865.8C1645.38 2866.49 1650.46 2867.25 1654.15 2868.07C1668.65 2871.3 1659.17 2874.81 1652.17 2876.62C1619.94 2884.95 1517.37 2890.96 1484.31 2884.8C1461.79 2880.6 1435.63 2879.32 1413 2878.2C1393.81 2877.26 1377.47 2876.46 1369.61 2874.11ZM1427.81 2849.16C1416.62 2852.15 1363.24 2866.82 1372.8 2871.87C1373.47 2872.23 1374.33 2872.55 1375.36 2872.85C1382.68 2875.03 1398.56 2875.79 1417.2 2876.69C1440.15 2877.81 1466.69 2879.1 1489.79 2883.36C1522.65 2889.42 1621.2 2882.76 1648.09 2875.83C1657.07 2873.51 1657.18 2871.34 1648.53 2869.4C1645.12 2868.64 1640.35 2867.92 1634.36 2867.26C1561.69 2859.27 1443.49 2850.32 1427.81 2849.16ZM2015.55 3041.89C1966.42 3028.01 1931.69 3016.42 1920.45 3010.34C1914.5 3007.13 1917.6 3005.18 1921.21 3004.12C1950.9 2995.31 2194.1 3021 2237.64 3027.52C2274.7 3033.07 2317.35 3023.73 2357.97 3014.84C2386.46 3008.59 2413.09 3002.75 2440.45 3001.11C2454.84 3000.25 2468.22 3001.01 2480.29 3003.41C2503.38 3007.99 2519.21 3018.09 2535.08 3028.23C2547.77 3036.34 2561.31 3044.97 2577.84 3050.19C2592.13 3054.69 2619.88 3061.35 2661.3 3070.15C2736.19 3086.05 2831.43 3103.78 2832.41 3103.96C2835.53 3104.54 2837.61 3105.55 2837.51 3106.48C2837.42 3107.41 2835.2 3108.04 2831.99 3108.05C2828.55 3108.07 2501.82 3109.14 2386.76 3112.8C2301.14 3115.52 2103.84 3066.86 2015.55 3041.89ZM2473.89 3005.89C2464.73 3004.06 2454.88 3003.5 2443.73 3004.17C2418.68 3005.67 2391.65 3011.61 2365.27 3017.41C2321.74 3026.99 2276 3037.04 2232.51 3030.46C2165.61 3020.33 1947.19 3000.09 1927.47 3005.95C1926.18 3006.33 1926.85 3007.34 1929.21 3008.62C1940.01 3014.38 1975.18 3025.95 2023.14 3039.36C2137.98 3071.48 2313.79 3110.77 2384.06 3108.5C2481.91 3105.34 2730 3103.96 2805.92 3103.61C2772.95 3097.3 2708.58 3084.79 2654.58 3073.21C2612.26 3064.13 2583.71 3057.2 2568.74 3052.44C2550.59 3046.65 2536.72 3037.67 2523.73 3029.24C2508.8 3019.56 2493.91 3009.9 2473.89 3005.89ZM1772.64 2969.55C1716.84 2953.93 1721.15 2925.17 1775.57 2887.51C1803.78 2867.98 1890.45 2866.76 1891.35 2866.75C1892.76 2866.74 1893.81 2866.92 1894.01 2867.22C1894.14 2867.42 1907.27 2887.6 1920.77 2916.92C1930.6 2938.29 1919.9 2966.19 1871.01 2975.63C1846.23 2980.42 1817.06 2979.37 1785.45 2972.67C1780.9 2971.7 1776.6 2970.65 1772.64 2969.55ZM1887.16 2868.46C1873.37 2868.74 1806.09 2871 1782.44 2887.52C1725.68 2927.18 1725.05 2956.56 1791.82 2970.54C1820.59 2976.58 1846.23 2977.67 1867.14 2973.64C1905.41 2966.25 1923.53 2942.28 1912.65 2917.64C1900.82 2890.82 1889.18 2871.71 1887.16 2868.46ZM1968.86 2979.06C1935 2970.6 1944.25 2937.2 1950.31 2915.31C1952.7 2906.7 1954.69 2899.5 1953.43 2896.01C1948.89 2883.43 1978.2 2880.17 1979.45 2880.04C1980.71 2879.91 1982.02 2879.92 1982.94 2880.07C1983 2880.08 1988.95 2881.05 1997.83 2882.66C2033.54 2889.17 2096.65 2902.42 2091.89 2913.61C2086.17 2927.09 2136.47 2949.01 2255.43 2982.08C2279.06 2988.64 2286.86 2993.49 2278.68 2996.77C2248.46 3008.88 2009.75 2984.73 1976 2980.38C1973.46 2980.05 1971.08 2979.61 1968.86 2979.06ZM1979.25 2881.92C1973.7 2882.78 1957.79 2886.1 1961.3 2895.39C1962.68 2899.03 1960.79 2906.28 1958.52 2914.97C1952.93 2936.48 1944.4 2969.22 1975.71 2976.96C1977.39 2977.37 1979.15 2977.7 1981.01 2977.94C2037.11 2985.09 2248.12 3003.75 2269.87 2995.09C2272.03 2994.24 2274.12 2991.44 2247.88 2984.07C2127.64 2950.32 2077.13 2927.8 2083.33 2913.73C2088.06 2903.04 2019.95 2889.3 1992.2 2884.2C1986.2 2883.1 1981.57 2882.31 1979.25 2881.92ZM1405.04 2838.02C1399.19 2836.55 1400.34 2833.54 1408.21 2829.34C1427.12 2819.28 1479.57 2804.59 1522.82 2796.96C1586.13 2785.8 1607.52 2784.72 1640.99 2787.11C1641.7 2787.16 1641.92 2787.32 1641.57 2787.52C1641.21 2787.71 1640.33 2787.92 1639.31 2788.03C1639.02 2788.07 1611.09 2791.34 1596.08 2796.24C1586.72 2799.31 1584.01 2802.45 1588.17 2805.6C1591.09 2807.81 1595.46 2810.41 1600.18 2813.22C1617.12 2823.27 1637.84 2835.58 1618.25 2843.92C1613.59 2845.91 1606.85 2847.57 1598.19 2848.83C1556.69 2854.9 1505.52 2848.84 1462.96 2843.8C1444.16 2841.57 1426.82 2839.53 1413.12 2838.96C1409.68 2838.81 1406.99 2838.5 1405.04 2838.02ZM1633.54 2787.86C1605.7 2786 1586.5 2786.66 1524.73 2797.57C1482.63 2805.01 1431.66 2819.31 1413.38 2829.11C1406.23 2832.94 1405.09 2835.66 1410.22 2836.93C1411.85 2837.33 1414.12 2837.59 1417 2837.7C1431.11 2838.28 1448.62 2840.34 1467.62 2842.56C1507.06 2847.19 1559.05 2853.28 1596.9 2847.75C1603.88 2846.73 1609.13 2845.44 1612.94 2843.83C1631.24 2836.06 1610.3 2823.45 1594.69 2814.05C1590 2811.23 1585.66 2808.6 1582.75 2806.36C1578.33 2802.95 1581.45 2799.52 1591.84 2796.14C1604.36 2792.06 1624.12 2789.12 1633.54 2787.86ZM1731.88 2878.65C1727.34 2877.67 1722.96 2876.22 1718.5 2874.25C1694.85 2863.8 1703.07 2851.41 1709.34 2841.97C1712.93 2836.59 1715.93 2832.05 1711.25 2829.8C1707.07 2827.82 1714.93 2824.75 1732.63 2821.39C1763.6 2815.5 1822.75 2809.36 1846.84 2813.02C1848.37 2813.25 1849.75 2813.52 1850.96 2813.82C1851.41 2813.94 1893.6 2825.47 1844.64 2844.45C1831.02 2849.72 1819.05 2855.53 1808.28 2860.78C1788.85 2870.23 1773 2877.93 1754.39 2879.78C1746.38 2880.58 1739.01 2880.2 1731.88 2878.65ZM1842.05 2814.14C1820 2810.77 1764.62 2816.6 1735.45 2822.15C1728.49 2823.48 1712.68 2826.81 1717.08 2828.89C1722.31 2831.34 1719.28 2836.01 1715.67 2841.56C1709.66 2850.83 1701.77 2863 1724.93 2873.1C1734.87 2877.45 1744.53 2879.16 1753.93 2878.24C1768.63 2876.79 1784.43 2869.15 1802.16 2860.58C1813.07 2855.31 1825.17 2849.46 1839.04 2844.1C1886.02 2826 1845.94 2814.94 1845.54 2814.83C1844.53 2814.57 1843.37 2814.34 1842.05 2814.14ZM2647.67 3032.35C2556.72 3014.47 2507.23 2996.63 2506.1 2982.76C2505.37 2973.73 2524.1 2966.31 2561.6 2960.51C2562.34 2960.39 2563.17 2960.33 2564.08 2960.31C2573.16 2960.19 2795.73 2957.27 2907.47 2974.23C2948.58 2980.46 2970.56 2988.69 2971.81 2998.74C2973.74 3014.27 2990.21 3027.85 3003.98 3039.2C3018.74 3051.38 3029.78 3060.47 3013.15 3065.22C2998.01 3069.55 2961.41 3069.4 2892.5 3064.84C2816.48 3059.79 2724.13 3047.37 2647.67 3032.35ZM2567.17 2963.08C2533.53 2968.38 2516.79 2975.03 2517.59 2982.95C2518.88 2995.81 2566.66 3012.59 2654 3029.6C2727.52 3043.91 2819.46 3056.15 2891.88 3060.89C2954.27 3064.98 2988.04 3065.32 2999.98 3061.94C3012.31 3058.42 3002.55 3050.22 2989.43 3039.19C2976.39 3028.23 2959.26 3013.83 2957.63 2997.9C2956.72 2989.16 2938.33 2982.23 2902.16 2976.7C2798.67 2960.85 2585.94 2962.87 2567.17 2963.08ZM2178.96 2932.67C2144.24 2926 2125.53 2916.83 2108.19 2908.34C2093.85 2901.32 2080.77 2894.92 2060.45 2890.94C2024.67 2883.96 1997.16 2872.99 2011.84 2866.99C2016.71 2865 2028.27 2862.68 2056.17 2862.88C2086.64 2863.09 2194.34 2864.51 2258.35 2874.18C2284.1 2878.06 2300.25 2882.89 2305.89 2888.54C2306.22 2888.88 2305.73 2889.25 2304.59 2889.51C2303.46 2889.78 2301.83 2889.89 2300.34 2889.83C2300.22 2889.81 2287 2889.26 2278.35 2891.1C2271.19 2892.64 2268.47 2895.57 2270.52 2899.67C2272.16 2902.95 2278.14 2907.34 2284.59 2912.11C2298.49 2922.33 2313.54 2933.41 2293.67 2938.48C2282.36 2941.38 2262.17 2941.68 2232.46 2939.45C2212.24 2937.93 2194.73 2935.7 2178.96 2932.67ZM2253.05 2875.76C2190.6 2866.25 2084.33 2864.79 2054.23 2864.57C2041.26 2864.48 2024.59 2864.91 2018.28 2867.51C2007.29 2872.04 2028.84 2882.13 2066.29 2889.38C2087.71 2893.53 2101.2 2900.05 2115.99 2907.2C2133.11 2915.48 2151.58 2924.41 2185 2930.78C2199.98 2933.62 2216.58 2935.71 2235.74 2937.14C2261.24 2939.04 2278.57 2938.94 2286.85 2936.84C2302.45 2932.86 2287.99 2922.04 2275.79 2912.91C2269.3 2908.04 2263.29 2903.55 2261.62 2900.07C2259.27 2895.21 2263.04 2891.73 2272.72 2889.68C2280.17 2888.11 2289.34 2887.76 2295.59 2887.74C2289.34 2883.12 2274.96 2879.1 2253.05 2875.76ZM2397.35 2963.18C2357.71 2955.8 2321.03 2942.61 2324.66 2929.56C2326.53 2922.84 2322.37 2916.62 2319.09 2911.75C2315.05 2905.73 2312.19 2901.47 2322.3 2899.34C2329.1 2897.91 2340.09 2897.74 2358.11 2898.8C2418.89 2902.4 2604.55 2928.07 2695.66 2941.89C2709.5 2944 2720.75 2945.76 2728.98 2947.12C2730.97 2947.45 2732.12 2947.99 2731.95 2948.5C2731.78 2949.01 2730.34 2949.42 2728.21 2949.54C2655.97 2953.47 2468.77 2964.14 2450.37 2967.25C2440.16 2968.98 2420.18 2967.43 2397.35 2963.18ZM2690.23 2944.07C2594.24 2929.36 2412.45 2904.27 2355.4 2900.86C2341.33 2900.02 2332.23 2900.02 2328.27 2900.85C2322.04 2902.17 2324.93 2906.36 2328.34 2911.29C2331.79 2916.28 2336.18 2922.64 2334.36 2929.63C2331.2 2941.78 2366.04 2954.1 2403.45 2961C2423.35 2964.68 2439 2965.77 2444.03 2964.93C2465.11 2961.37 2661.1 2950.34 2712.3 2947.5C2705.97 2946.49 2698.59 2945.34 2690.23 2944.07ZM1659.36 2823.1C1649.04 2821.21 1646.13 2816.66 1651.31 2811.04C1655.35 2806.67 1653.19 2802.28 1651.5 2798.83C1649.54 2794.84 1648.15 2792.02 1656.1 2790.44C1661.53 2789.38 1668.7 2789.37 1673.63 2789.46C1694.22 2789.81 1733.77 2793.5 1762.62 2797.82C1779.67 2800.38 1799.83 2804.18 1796.21 2807.45C1795.31 2808.27 1792.93 2809.03 1789.35 2809.68C1788.69 2809.8 1787.95 2809.87 1787.25 2809.9C1786.73 2809.91 1735.16 2811.92 1704.63 2819.58C1696.01 2821.75 1687.07 2823.19 1678.81 2823.76C1671.24 2824.28 1664.51 2824.04 1659.36 2823.1ZM1758.03 2798.84C1730.05 2794.62 1690.37 2790.88 1670.59 2790.52C1665 2790.42 1660.83 2790.57 1658.82 2790.98C1653.82 2791.97 1655.42 2795.1 1657.01 2798.21C1658.79 2801.7 1661.06 2806.16 1656.96 2810.67C1652.13 2815.99 1654.79 2820.27 1664.32 2822C1668.51 2822.76 1673.84 2822.95 1679.68 2822.56C1686.2 2822.12 1693.51 2820.91 1700.79 2819.08C1731.46 2811.4 1779.14 2809.1 1787.55 2808.75C1789.04 2808.43 1789.94 2808.1 1790.39 2807.71C1792.81 2805.54 1780.78 2802.28 1758.03 2798.84ZM1897 2858.01C1884.84 2855.85 1878.65 2852.37 1878.96 2848C1879.37 2842.16 1892.7 2835.66 1902.21 2831.01C1907.39 2828.48 1911.87 2826.3 1912 2825.3C1909.52 2824.84 1908.06 2824.5 1910.04 2823.94C1910.36 2823.85 1912.13 2823.39 1914.77 2823.53C1916.65 2823.64 1917.89 2823.93 1918.35 2824.36C1923.83 2825.34 1936.38 2827.32 1955.99 2830.3C1955.99 2830.3 1955.99 2830.3 1956 2830.3C2011.54 2838.76 2110.61 2853.24 2111.67 2853.39C2112.85 2853.62 2113.32 2854.01 2112.38 2854.38C2111.45 2854.76 2109.52 2854.98 2107.81 2854.93C2107.01 2854.9 2029.16 2852.46 1976.89 2857.84C1944.34 2861.19 1915.09 2861.23 1897 2858.01ZM1917.36 2826.25C1915.67 2827.49 1912.31 2829.13 1908.21 2831.17C1898.99 2835.68 1886.12 2842.01 1885.84 2847.52C1885.63 2851.53 1891.28 2854.69 1902.35 2856.65C1918.79 2859.55 1945.56 2859.47 1975.47 2856.4C2015.36 2852.29 2067.08 2852.48 2093.58 2852.91C2064.2 2848.57 1994.54 2838.24 1951.02 2831.55C1951.01 2831.55 1951 2831.55 1951 2831.55C1935.26 2829.13 1924.05 2827.37 1917.36 2826.25Z" fill="white"/>
</g>
</g>
</g>
<path d="M1767.23 2777.45L1766.35 2799.38L1059.7 2888.5L1007.27 2869.07L1767.23 2777.45Z" fill="#F4F7FA"/>
<path d="M1766.35 2799.38L2856.28 3088.86L2900.04 3063.94L1767.23 2777.45L1766.35 2799.38Z" fill="url(#paint65_linear_6_2)"/>
<path d="M3011.03 3356.94C3029.17 3362.52 3059.7 3371.89 3093.83 3360.97C3155.89 3341.13 3189.57 3267.08 3194.7 3208.99C3199.12 3159.08 3177.84 3110.38 3135.29 3012.96C3095.22 2921.21 3074.74 2899.94 3087.08 2868.76C3104.68 2824.31 3164.09 2822.52 3176.83 2767.59C3178.36 2760.99 3183.61 2738.34 3171.74 2720.47C3151.43 2689.89 3095.19 2694.76 3063.52 2704.98C3032.96 2714.83 2989.42 2741.22 2981.78 2781.15C2976.26 2810.1 2994.27 2821.58 2984.08 2844.75C2973.83 2868.06 2952.5 2863.48 2921.64 2892.41C2909.32 2903.97 2884.59 2927.18 2880.73 2958.92C2875.76 2999.96 2910.21 3018.12 2898.93 3047.43C2890.78 3068.6 2870.13 3066.04 2856.14 3087.48C2837.74 3115.72 2851.09 3154.55 2862.64 3186.72C2876.24 3224.6 2912.93 3326.81 3011.03 3356.94Z" fill="url(#paint66_linear_6_2)"/>
<g style="mix-blend-mode:screen" opacity="0.16">
<path d="M3152.96 2725.07C3160.44 2746.25 3083.79 2761.51 3051.97 2831.52C3017.76 2906.86 3056.33 2999.63 3074.16 3042.49C3104.57 3115.64 3133.02 3125.23 3140.85 3188.64C3143.95 3213.74 3150.4 3266.01 3115.82 3307.24C3112.6 3311.07 3076.16 3353.26 3026.05 3349.6C2969.21 3345.44 2938.03 3285.45 2911.16 3233.77C2894.93 3202.53 2862.48 3140.16 2886.52 3114.51C2901.2 3098.84 2933.62 3100.51 2954.79 3109.48C2985.02 3122.29 2996.53 3151.74 3002.13 3148.91C3007.17 3146.36 3002.68 3120.02 2989.63 3093.49C2963.51 3040.43 2929.77 3040.92 2913.43 2997.28C2911.45 2991.99 2896.34 2949.85 2918.37 2917.98C2931.09 2899.6 2956.46 2884.16 2973.78 2891.01C2993.35 2898.74 2994.17 2931.63 3000.57 2930.84C3006.7 2930.08 3009.68 2899.55 3008.22 2868.94C3006.08 2823.98 2996.14 2816.32 3000.75 2792.14C3007.8 2755.26 3038.51 2733.52 3042.97 2730.44C3084.76 2701.75 3146.56 2706.95 3152.96 2725.07Z" fill="white"/>
</g>
<path d="M2938.42 3383.43C3001.16 3375.81 3014.11 3390.56 3077.93 3387.66C3140.72 3384.81 3145.02 3369.79 3196.31 3372.86C3242.41 3375.63 3301.78 3391.54 3301.99 3408.79C3302.23 3427.79 3230.87 3454.49 3162.49 3444.73C3124.44 3439.3 3127.06 3428.26 3090.61 3423.59C3024.58 3415.14 3005.18 3450.02 2938.42 3442.62C2899.8 3438.34 2859.48 3421.47 2860.21 3408.79C2861.14 3392.83 2927.24 3384.8 2938.42 3383.43Z" fill="#D8DEE8"/>
<path d="M3081.51 3388.9C3062.05 3292.75 3070.43 3215.47 3079.26 3168.8C3090 3112.19 3111.79 2997.11 3203.28 2932.97C3210.49 2927.9 3282.06 2878.68 3314.21 2903.13C3330.78 2915.74 3334.57 2946.19 3327.31 2970.23C3308.6 3032.27 3224.22 3025.38 3196.19 3096.01C3186.85 3119.53 3185.12 3148.23 3191.63 3150.93C3199.64 3154.26 3222.51 3119.18 3224.69 3115.83C3245.06 3084.54 3245.26 3066.83 3260.79 3062.03C3270.35 3059.08 3282.91 3061.85 3288.54 3069.39C3301.36 3086.55 3276.05 3125.65 3268.97 3136.58C3250.47 3165.18 3235.01 3171.67 3231.25 3196.01C3229.63 3206.49 3229.92 3221.99 3236.14 3224.4C3244.55 3227.67 3260.6 3205.77 3270.9 3191.72C3298.58 3153.95 3301.53 3132 3315.3 3130.42C3328.13 3128.95 3342.6 3146.12 3346.31 3156.57C3356.45 3185.11 3315.69 3245.87 3081.51 3388.9Z" fill="url(#paint67_linear_6_2)"/>
<g style="mix-blend-mode:soft-light" opacity="0.28">
<path d="M3084.43 3372.41C3081.53 3283.05 3095.99 3212.21 3109.1 3165.74C3125.95 3105.99 3157.62 2993.61 3246.48 2944.98C3252.8 2941.52 3299.26 2916.09 3312.24 2929.71C3320.9 2938.79 3313.22 2963.71 3300.5 2980.21C3278.78 3008.37 3253.76 2997.19 3218.3 3024.83C3186.48 3049.63 3175.3 3083.02 3172.51 3091.76C3162.13 3124.18 3167.52 3151.98 3168.98 3162.21C3174.54 3201.12 3163.17 3264.83 3084.43 3372.41Z" fill="white"/>
</g>
<g style="mix-blend-mode:soft-light" opacity="0.28">
<path d="M3116.15 3350.09C3165.98 3305.46 3177.5 3268.89 3178.37 3243.24C3179.07 3223.25 3173.66 3199.53 3188.95 3177.49C3198.72 3163.38 3206.1 3165.65 3223 3150.47C3258.3 3118.76 3262.7 3076.03 3269.97 3077.67C3274.02 3078.59 3276.12 3092.61 3273.49 3105.85C3268.06 3133.18 3246.69 3136.04 3225.34 3169.26C3210.77 3191.96 3205.7 3214.01 3203.04 3225.62C3196.53 3253.95 3200.95 3263.89 3197.16 3279.64C3192.26 3300.05 3174.5 3326.4 3116.15 3350.09Z" fill="white"/>
</g>
<path d="M3111.45 3404.44C3197.83 3409.38 3223.51 3414.57 3264.22 3400.69C3302.48 3387.66 3341.71 3361.98 3338.27 3350.2C3335.79 3341.75 3311.78 3341.87 3297.44 3341.93C3258.94 3342.1 3227.19 3353.9 3204.93 3365.3C3224.14 3352.26 3243.34 3339.22 3262.55 3326.19C3275.97 3321.39 3298.67 3311.21 3318.77 3289.69C3331.35 3276.21 3360.28 3239.73 3349.41 3222.2C3338.06 3203.88 3284.11 3207.58 3253 3233.56C3238.08 3246.01 3238.07 3255.55 3218.06 3277.32C3199.89 3297.09 3181.12 3309.63 3167.93 3317.22C3180.29 3301.77 3197.1 3277.65 3210.15 3245.13C3230 3195.74 3244.98 3117.58 3219.74 3103.37C3203 3093.95 3169.79 3113.37 3153.18 3136.38C3139.72 3155.04 3141.05 3170.69 3131.78 3230.65C3127.76 3256.72 3123.79 3277.7 3121.24 3290.73C3095.55 3234.38 3088.09 3186.96 3086.59 3152.11C3084.66 3107.33 3092.06 3072.25 3074.94 3062.92C3059.68 3054.6 3032.41 3070.83 3018.58 3086.07C2962.64 3147.69 3036.47 3292.35 3044.26 3307.27C3023.74 3291.72 2995.44 3267.4 2968.03 3232.24C2938.74 3194.63 2926.36 3166.65 2911.46 3169.16C2896.65 3171.65 2886.88 3203.19 2887.99 3227.6C2891.08 3295.66 2979.97 3335.62 2989.46 3339.74C2981.98 3340.95 2969.31 3342.21 2954.36 3339.36C2921.22 3333.04 2910.88 3312.95 2877.27 3306.13C2864.41 3303.52 2838.12 3300.82 2834.88 3308.78C2829.05 3323.07 2895.47 3376.74 2976.04 3397.2C3005.57 3404.7 2998.51 3397.97 3111.45 3404.44Z" fill="url(#paint68_linear_6_2)"/>
<g style="mix-blend-mode:soft-light" opacity="0.28">
<path d="M3168.47 3355.2C3207.79 3337.72 3202.45 3313.93 3245.47 3284.49C3273.02 3265.65 3279.43 3272.51 3308.96 3254.49C3325.2 3244.58 3338.47 3233.21 3349.25 3221.96C3349.3 3222.04 3349.36 3222.12 3349.41 3222.2C3360.28 3239.73 3331.35 3276.21 3318.77 3289.69C3298.67 3311.21 3275.97 3321.39 3262.55 3326.19C3243.34 3339.22 3224.14 3352.26 3204.93 3365.3C3227.19 3353.9 3258.94 3342.1 3297.44 3341.93C3309.94 3341.87 3329.79 3341.78 3336.31 3347.35C3324.76 3354.53 3314.35 3357.98 3305.89 3359.7C3286.59 3363.63 3274.49 3359.24 3257.79 3369.3C3244.41 3377.37 3245.52 3384.23 3233.73 3388.6C3222.63 3392.71 3216.96 3388.36 3189.58 3383.88C3162.94 3379.5 3149.4 3377.45 3138.65 3384.22C3130.51 3389.32 3126.18 3397.76 3123.81 3405.17C3121.04 3405 3118.21 3404.83 3115.32 3404.66C3117.47 3396.15 3121.41 3386.38 3128.89 3377.67C3140.76 3363.86 3153.75 3361.74 3168.47 3355.2Z" fill="white"/>
</g>
<g style="mix-blend-mode:soft-light" opacity="0.28">
<path d="M3056.4 3385.43C3050.18 3383.93 3047.21 3388.38 3038.58 3389.49C3022.55 3391.58 3016.52 3378.35 2997.68 3372.06C2975.37 3364.62 2969.71 3378.46 2947.49 3371.57C2929.89 3366.13 2932.16 3357.06 2909.18 3343.81C2884.71 3329.72 2874.36 3335.5 2856.38 3323.87C2850.61 3320.13 2844.01 3314.56 2837.74 3305.91C2845.64 3301.63 2866.31 3303.91 2877.27 3306.13C2910.88 3312.95 2921.22 3333.04 2954.36 3339.36C2969.31 3342.21 2981.98 3340.95 2989.46 3339.74C2979.97 3335.62 2891.08 3295.66 2887.99 3227.6C2886.96 3204.96 2895.29 3176.2 2908.32 3170.15C2906.78 3185.88 2906.57 3199.32 2906.8 3209.89C2907.35 3234.48 2907.8 3246.98 2915.58 3257.24C2929.07 3275.05 2945.52 3265.76 2967.95 3284.27C2988.38 3301.1 2981.26 3314.17 3002.56 3331.04C3020.96 3345.59 3031.85 3340.29 3049.14 3352.1C3060 3359.5 3073.18 3373.53 3081.1 3402.86C3077.49 3402.71 3074.04 3402.56 3070.75 3402.42C3067.63 3394.1 3063.09 3387.03 3056.4 3385.43Z" fill="white"/>
</g>
<g style="mix-blend-mode:soft-light" opacity="0.28">
<path d="M3075.8 3292.68C3065.03 3263.36 3046.35 3266.37 3038.55 3240.55C3030.8 3214.89 3047.75 3206.91 3043.43 3169.74C3040.19 3141.9 3029.68 3137.8 3028.99 3118.77C3028.46 3104.73 3033.41 3085.62 3056.28 3061.92C3063.22 3060.1 3069.77 3060.1 3074.94 3062.92C3092.06 3072.25 3084.66 3107.33 3086.59 3152.11C3088.09 3186.96 3095.55 3234.37 3121.24 3290.73C3123.79 3277.7 3127.76 3256.72 3131.78 3230.65C3141.05 3170.69 3139.72 3155.04 3153.18 3136.38C3169.79 3113.37 3203 3093.95 3219.74 3103.37C3220.7 3103.91 3221.59 3104.55 3222.43 3105.27C3214.09 3110.97 3206.37 3117.96 3199.9 3126.59C3177.81 3156.02 3190.38 3177.1 3170.36 3235.16C3151.1 3290.99 3131.56 3294.44 3116.07 3342.68C3111.12 3358.08 3106.45 3378.49 3105.49 3404.1C3099.84 3403.79 3094.5 3403.51 3089.46 3403.26C3083.66 3384.26 3080.93 3367.25 3079.76 3352.84C3077.19 3321.07 3083.07 3312.48 3075.8 3292.68Z" fill="white"/>
</g>
<defs>
<linearGradient id="paint0_linear_6_2" x1="3723.27" y1="20.8201" x2="3337.97" y2="966.566" gradientUnits="userSpaceOnUse">
<stop stop-color="#FCB148"/>
<stop offset="0.318" stop-color="#FFC444"/>
<stop offset="0.866" stop-color="#F8924F"/>
<stop offset="1" stop-color="#F8924F"/>
</linearGradient>
<linearGradient id="paint1_linear_6_2" x1="3092.57" y1="223.242" x2="3397.13" y2="223.242" gradientUnits="userSpaceOnUse">
<stop stop-color="#FCB148"/>
<stop offset="0.318" stop-color="#FFC444"/>
<stop offset="0.866" stop-color="#F8924F"/>
<stop offset="1" stop-color="#F8924F"/>
</linearGradient>
<linearGradient id="paint2_linear_6_2" x1="1550.85" y1="1670.98" x2="682.486" y2="3174.88" gradientUnits="userSpaceOnUse">
<stop offset="0.004" stop-color="#E38DDD"/>
<stop offset="1" stop-color="#1EC14C"/>
</linearGradient>
<linearGradient id="paint3_linear_6_2" x1="1796.63" y1="1858.01" x2="987.199" y2="3259.86" gradientUnits="userSpaceOnUse">
<stop offset="0.004" stop-color="#E38DDD"/>
<stop offset="1" stop-color="#1EC14C"/>
</linearGradient>
<linearGradient id="paint4_linear_6_2" x1="2844.26" y1="835.093" x2="3046.57" y2="1835.91" gradientUnits="userSpaceOnUse">
<stop stop-color="#D8DEE8"/>
<stop offset="1" stop-color="white"/>
</linearGradient>
<linearGradient id="paint5_linear_6_2" x1="3498.11" y1="-226.876" x2="4271.73" y2="2059.7" gradientUnits="userSpaceOnUse">
<stop offset="0.004" stop-color="#BCBCBC"/>
<stop offset="1" stop-color="#1EC14C"/>
</linearGradient>
<linearGradient id="paint6_linear_6_2" x1="1920.14" y1="504.404" x2="2666.17" y2="1201.51" gradientUnits="userSpaceOnUse">
<stop stop-color="#FF9085"/>
<stop offset="1" stop-color="#FB6FBB"/>
</linearGradient>
<linearGradient id="paint7_linear_6_2" x1="1260.32" y1="2000.89" x2="751.438" y2="2882.21" gradientUnits="userSpaceOnUse">
<stop offset="0.004" stop-color="#BCBCBC"/>
<stop offset="1" stop-color="#0D002F"/>
</linearGradient>
<linearGradient id="paint8_linear_6_2" x1="1387.24" y1="2103.23" x2="916.309" y2="2918.83" gradientUnits="userSpaceOnUse">
<stop offset="0.004" stop-color="#E38DDD"/>
<stop offset="1" stop-color="#1EC14C"/>
</linearGradient>
<linearGradient id="paint9_linear_6_2" x1="4766.48" y1="1654.85" x2="3813.16" y2="3305.89" gradientUnits="userSpaceOnUse">
<stop offset="0.004" stop-color="#E38DDD"/>
<stop offset="1" stop-color="#1EC14C"/>
</linearGradient>
<linearGradient id="paint10_linear_6_2" x1="5030.95" y1="1857.84" x2="4143.3" y2="3395.15" gradientUnits="userSpaceOnUse">
<stop offset="0.004" stop-color="#E38DDD"/>
<stop offset="1" stop-color="#1EC14C"/>
</linearGradient>
<linearGradient id="paint11_linear_6_2" x1="1115.1" y1="1299.77" x2="3303.55" y2="2583.53" gradientUnits="userSpaceOnUse">
<stop offset="0.004" stop-color="#BCBCBC"/>
<stop offset="1" stop-color="#1EC14C"/>
</linearGradient>
<linearGradient id="paint12_linear_6_2" x1="1153.36" y1="1169.4" x2="3265.48" y2="2408.38" gradientUnits="userSpaceOnUse">
<stop offset="0.004" stop-color="#BCBCBC"/>
<stop offset="1" stop-color="#1EC14C"/>
</linearGradient>
<linearGradient id="paint13_linear_6_2" x1="1585.04" y1="1883.21" x2="2270.6" y2="2285.35" gradientUnits="userSpaceOnUse">
<stop offset="0.004"/>
<stop offset="1" stop-color="#1EC14C"/>
</linearGradient>
<linearGradient id="paint14_linear_6_2" x1="1616.4" y1="2339.32" x2="2038.6" y2="2586.98" gradientUnits="userSpaceOnUse">
<stop offset="0.004" stop-color="#E38DDD"/>
<stop offset="1" stop-color="#1EC14C"/>
</linearGradient>
<linearGradient id="paint15_linear_6_2" x1="52.4211" y1="2423.16" x2="3653.29" y2="2423.16" gradientUnits="userSpaceOnUse">
<stop stop-color="#EBEFF2"/>
<stop offset="0.474" stop-color="#D2D9E1"/>
<stop offset="0.995" stop-color="#B7C0CE"/>
</linearGradient>
<linearGradient id="paint16_linear_6_2" x1="662.561" y1="2639.38" x2="1923.93" y2="2639.38" gradientUnits="userSpaceOnUse">
<stop stop-color="#EBEFF2"/>
<stop offset="0.474" stop-color="#D2D9E1"/>
<stop offset="0.995" stop-color="#B7C0CE"/>
</linearGradient>
<linearGradient id="paint17_linear_6_2" x1="-599.584" y1="2506.88" x2="121.568" y2="2506.88" gradientUnits="userSpaceOnUse">
<stop stop-color="#EBEFF2"/>
<stop offset="0.474" stop-color="#D2D9E1"/>
<stop offset="0.995" stop-color="#B7C0CE"/>
</linearGradient>
<linearGradient id="paint18_linear_6_2" x1="3270.03" y1="238.052" x2="3576.76" y2="1355.63" gradientUnits="userSpaceOnUse">
<stop stop-color="#EBEFF2"/>
<stop offset="0.474" stop-color="#D2D9E1"/>
<stop offset="0.995" stop-color="#B7C0CE"/>
</linearGradient>
<linearGradient id="paint19_linear_6_2" x1="6475.42" y1="1437.96" x2="1949.35" y2="2070.28" gradientUnits="userSpaceOnUse">
<stop stop-color="#EBEFF2"/>
<stop offset="0.474" stop-color="#D2D9E1"/>
<stop offset="0.995" stop-color="#B7C0CE"/>
</linearGradient>
<linearGradient id="paint20_linear_6_2" x1="2141.13" y1="1436.69" x2="4066.73" y2="2566.25" gradientUnits="userSpaceOnUse">
<stop offset="0.004" stop-color="#BCBCBC"/>
<stop offset="1" stop-color="#1EC14C"/>
</linearGradient>
<linearGradient id="paint21_linear_6_2" x1="2121.17" y1="1301.33" x2="4159.58" y2="2497.07" gradientUnits="userSpaceOnUse">
<stop offset="0.004" stop-color="#E38DDD"/>
<stop offset="1" stop-color="#1EC14C"/>
</linearGradient>
<linearGradient id="paint22_linear_6_2" x1="1286.49" y1="1669.44" x2="864.053" y2="4054.44" gradientUnits="userSpaceOnUse">
<stop stop-color="#EBEFF2"/>
<stop offset="0.474" stop-color="#D2D9E1"/>
<stop offset="0.995" stop-color="#B7C0CE"/>
</linearGradient>
<linearGradient id="paint23_linear_6_2" x1="1110.04" y1="3151.69" x2="885.181" y2="3289.85" gradientUnits="userSpaceOnUse">
<stop stop-color="#EBEFF2"/>
<stop offset="0.474" stop-color="#D2D9E1"/>
<stop offset="0.995" stop-color="#B7C0CE"/>
</linearGradient>
<linearGradient id="paint24_linear_6_2" x1="3387.22" y1="1702.31" x2="3033.69" y2="3784.25" gradientUnits="userSpaceOnUse">
<stop offset="0.004" stop-color="#BCBCBC"/>
<stop offset="1" stop-color="#1EC14C"/>
</linearGradient>
<linearGradient id="paint25_linear_6_2" x1="3552.82" y1="1713.05" x2="3217.36" y2="3688.54" gradientUnits="userSpaceOnUse">
<stop offset="0.004" stop-color="#BCBCBC"/>
<stop offset="1" stop-color="#1EC14C"/>
</linearGradient>
<linearGradient id="paint26_linear_6_2" x1="3157.56" y1="999.371" x2="3660.42" y2="1294.35" gradientUnits="userSpaceOnUse">
<stop offset="0.004" stop-color="#004313"/>
<stop offset="1" stop-color="#1EC14C"/>
</linearGradient>
<linearGradient id="paint27_linear_6_2" x1="3128.92" y1="1383.74" x2="3445.76" y2="1569.61" gradientUnits="userSpaceOnUse">
<stop offset="0.004" stop-color="#004313"/>
<stop offset="1" stop-color="#1EC14C"/>
</linearGradient>
<linearGradient id="paint28_linear_6_2" x1="2739.58" y1="1980.69" x2="3767.47" y2="2583.65" gradientUnits="userSpaceOnUse">
<stop offset="0.004"/>
<stop offset="1" stop-color="#1EC14C"/>
</linearGradient>
<linearGradient id="paint29_linear_6_2" x1="2132.79" y1="1656.33" x2="1793.42" y2="3356.62" gradientUnits="userSpaceOnUse">
<stop stop-color="#EBEFF2"/>
<stop offset="0.474" stop-color="#D2D9E1"/>
<stop offset="0.995" stop-color="#B7C0CE"/>
</linearGradient>
<linearGradient id="paint30_linear_6_2" x1="6835.38" y1="7695.62" x2="6438.84" y2="7939.27" gradientUnits="userSpaceOnUse">
<stop stop-color="#EBEFF2"/>
<stop offset="0.474" stop-color="#D2D9E1"/>
<stop offset="0.995" stop-color="#B7C0CE"/>
</linearGradient>
<linearGradient id="paint31_linear_6_2" x1="1633.82" y1="1805.89" x2="1325.59" y2="3621.01" gradientUnits="userSpaceOnUse">
<stop offset="0.004" stop-color="#BCBCBC"/>
<stop offset="1" stop-color="#1EC14C"/>
</linearGradient>
<linearGradient id="paint32_linear_6_2" x1="1773.69" y1="1788.29" x2="1456.25" y2="3657.66" gradientUnits="userSpaceOnUse">
<stop offset="0.004" stop-color="#BCBCBC"/>
<stop offset="1" stop-color="#1EC14C"/>
</linearGradient>
<linearGradient id="paint33_linear_6_2" x1="1963.82" y1="1774.45" x2="1638.2" y2="3692.03" gradientUnits="userSpaceOnUse">
<stop offset="0.004" stop-color="#BCBCBC"/>
<stop offset="1" stop-color="#1EC14C"/>
</linearGradient>
<linearGradient id="paint34_linear_6_2" x1="1423.02" y1="1222.3" x2="1852.61" y2="1474.3" gradientUnits="userSpaceOnUse">
<stop offset="0.004" stop-color="#004313"/>
<stop offset="1" stop-color="#1EC14C"/>
</linearGradient>
<linearGradient id="paint35_linear_6_2" x1="1437.58" y1="1499.93" x2="1755.56" y2="1686.46" gradientUnits="userSpaceOnUse">
<stop offset="0.004" stop-color="#004313"/>
<stop offset="1" stop-color="#1EC14C"/>
</linearGradient>
<linearGradient id="paint36_linear_6_2" x1="1607.93" y1="1507.48" x2="1918.83" y2="1689.86" gradientUnits="userSpaceOnUse">
<stop offset="0.004" stop-color="#004313"/>
<stop offset="1" stop-color="#1EC14C"/>
</linearGradient>
<linearGradient id="paint37_linear_6_2" x1="2533.15" y1="1700.24" x2="2224.92" y2="3515.37" gradientUnits="userSpaceOnUse">
<stop offset="0.004" stop-color="#BCBCBC"/>
<stop offset="1" stop-color="#1EC14C"/>
</linearGradient>
<linearGradient id="paint38_linear_6_2" x1="2673.02" y1="1682.65" x2="2355.58" y2="3552.02" gradientUnits="userSpaceOnUse">
<stop offset="0.004" stop-color="#BCBCBC"/>
<stop offset="1" stop-color="#1EC14C"/>
</linearGradient>
<linearGradient id="paint39_linear_6_2" x1="2863.15" y1="1668.81" x2="2537.53" y2="3586.38" gradientUnits="userSpaceOnUse">
<stop offset="0.004" stop-color="#BCBCBC"/>
<stop offset="1" stop-color="#1EC14C"/>
</linearGradient>
<linearGradient id="paint40_linear_6_2" x1="2322.35" y1="1116.66" x2="2751.94" y2="1368.66" gradientUnits="userSpaceOnUse">
<stop offset="0.004" stop-color="#004313"/>
<stop offset="1" stop-color="#1EC14C"/>
</linearGradient>
<linearGradient id="paint41_linear_6_2" x1="2336.91" y1="1394.29" x2="2654.89" y2="1580.81" gradientUnits="userSpaceOnUse">
<stop offset="0.004" stop-color="#004313"/>
<stop offset="1" stop-color="#1EC14C"/>
</linearGradient>
<linearGradient id="paint42_linear_6_2" x1="2507.26" y1="1401.84" x2="2818.16" y2="1584.21" gradientUnits="userSpaceOnUse">
<stop offset="0.004" stop-color="#004313"/>
<stop offset="1" stop-color="#1EC14C"/>
</linearGradient>
<linearGradient id="paint43_linear_6_2" x1="3792.1" y1="1370.57" x2="1293.12" y2="2773.51" gradientUnits="userSpaceOnUse">
<stop stop-color="#EBEFF2"/>
<stop offset="0.474" stop-color="#D2D9E1"/>
<stop offset="0.995" stop-color="#B7C0CE"/>
</linearGradient>
<linearGradient id="paint44_linear_6_2" x1="3460.58" y1="985.276" x2="734.271" y2="1024.23" gradientUnits="userSpaceOnUse">
<stop offset="0.004" stop-color="#BCBCBC"/>
<stop offset="1" stop-color="#1EC14C"/>
</linearGradient>
<linearGradient id="paint45_linear_6_2" x1="4931" y1="1157.86" x2="1920.04" y2="1200.88" gradientUnits="userSpaceOnUse">
<stop offset="0.004" stop-color="#BFFFD1"/>
<stop offset="1" stop-color="#1EC14C"/>
</linearGradient>
<linearGradient id="paint46_linear_6_2" x1="2066.39" y1="963.014" x2="1529.73" y2="970.681" gradientUnits="userSpaceOnUse">
<stop offset="0.004" stop-color="#BCBCBC"/>
<stop offset="1" stop-color="#1EC14C"/>
</linearGradient>
<linearGradient id="paint47_linear_6_2" x1="2052.34" y1="1683.18" x2="1676.52" y2="3566.13" gradientUnits="userSpaceOnUse">
<stop stop-color="#EBEFF2"/>
<stop offset="0.474" stop-color="#D2D9E1"/>
<stop offset="0.995" stop-color="#B7C0CE"/>
</linearGradient>
<linearGradient id="paint48_linear_6_2" x1="1284.24" y1="1116.41" x2="1002" y2="1120.44" gradientUnits="userSpaceOnUse">
<stop offset="0.004" stop-color="#BCBCBC"/>
<stop offset="1" stop-color="#1EC14C"/>
</linearGradient>
<linearGradient id="paint49_linear_6_2" x1="3526.91" y1="1706.01" x2="3093.14" y2="4154.99" gradientUnits="userSpaceOnUse">
<stop stop-color="#EBEFF2"/>
<stop offset="0.069" stop-color="#E7ECF0"/>
<stop offset="0.474" stop-color="#D2D9E1"/>
<stop offset="0.995" stop-color="#B7C0CE"/>
</linearGradient>
<linearGradient id="paint50_linear_6_2" x1="6516.45" y1="2484.76" x2="2102.97" y2="3101.35" gradientUnits="userSpaceOnUse">
<stop stop-color="#EBEFF2"/>
<stop offset="0.474" stop-color="#D2D9E1"/>
<stop offset="0.995" stop-color="#B7C0CE"/>
</linearGradient>
<linearGradient id="paint51_linear_6_2" x1="3199.82" y1="2660.64" x2="2801.74" y2="5004.9" gradientUnits="userSpaceOnUse">
<stop offset="0.004" stop-color="#BCBCBC"/>
<stop offset="1" stop-color="#1EC14C"/>
</linearGradient>
<linearGradient id="paint52_linear_6_2" x1="3398.12" y1="2689.66" x2="2986.89" y2="5111.34" gradientUnits="userSpaceOnUse">
<stop offset="0.004" stop-color="#BCBCBC"/>
<stop offset="1" stop-color="#1EC14C"/>
</linearGradient>
<linearGradient id="paint53_linear_6_2" x1="3587.39" y1="2717.23" x2="3161.66" y2="5224.31" gradientUnits="userSpaceOnUse">
<stop offset="0.004" stop-color="#BCBCBC"/>
<stop offset="1" stop-color="#1EC14C"/>
</linearGradient>
<linearGradient id="paint54_linear_6_2" x1="2852.04" y1="1793.46" x2="3391.54" y2="2109.94" gradientUnits="userSpaceOnUse">
<stop offset="0.004" stop-color="#004313"/>
<stop offset="1" stop-color="#1EC14C"/>
</linearGradient>
<linearGradient id="paint55_linear_6_2" x1="2827.22" y1="2191.31" x2="3228.14" y2="2426.49" gradientUnits="userSpaceOnUse">
<stop offset="0.004" stop-color="#004313"/>
<stop offset="1" stop-color="#1EC14C"/>
</linearGradient>
<linearGradient id="paint56_linear_6_2" x1="2945.24" y1="2348.39" x2="3292.88" y2="2552.32" gradientUnits="userSpaceOnUse">
<stop offset="0.004" stop-color="#004313"/>
<stop offset="1" stop-color="#1EC14C"/>
</linearGradient>
<linearGradient id="paint57_linear_6_2" x1="615.747" y1="1327.18" x2="502.129" y2="1968.64" gradientUnits="userSpaceOnUse">
<stop offset="0.004" stop-color="#E38DDD"/>
<stop offset="1" stop-color="#1EC14C"/>
</linearGradient>
<linearGradient id="paint58_linear_6_2" x1="1327.3" y1="1515.61" x2="1139.39" y2="2576.52" gradientUnits="userSpaceOnUse">
<stop offset="0.004" stop-color="#BCBCBC"/>
<stop offset="1" stop-color="#1EC14C"/>
</linearGradient>
<linearGradient id="paint59_linear_6_2" x1="3381.23" y1="1389.8" x2="3267.49" y2="2031.94" gradientUnits="userSpaceOnUse">
<stop offset="0.004" stop-color="#E38DDD"/>
<stop offset="1" stop-color="#1EC14C"/>
</linearGradient>
<linearGradient id="paint60_linear_6_2" x1="2820.95" y1="1504.49" x2="2668.58" y2="2364.77" gradientUnits="userSpaceOnUse">
<stop offset="0.004" stop-color="#BCBCBC"/>
<stop offset="1" stop-color="#1EC14C"/>
</linearGradient>
<linearGradient id="paint61_linear_6_2" x1="4182.77" y1="2401.32" x2="3662.85" y2="3301.77" gradientUnits="userSpaceOnUse">
<stop offset="0.004" stop-color="#E38DDD"/>
<stop offset="1" stop-color="#1EC14C"/>
</linearGradient>
<linearGradient id="paint62_linear_6_2" x1="-520.592" y1="2858.73" x2="968.946" y2="2858.73" gradientUnits="userSpaceOnUse">
<stop stop-color="#EBEFF2"/>
<stop offset="0.474" stop-color="#D2D9E1"/>
<stop offset="0.995" stop-color="#B7C0CE"/>
</linearGradient>
<linearGradient id="paint63_linear_6_2" x1="2355.84" y1="3053.11" x2="3015.35" y2="3053.11" gradientUnits="userSpaceOnUse">
<stop stop-color="#EBEFF2"/>
<stop offset="0.474" stop-color="#D2D9E1"/>
<stop offset="0.995" stop-color="#B7C0CE"/>
</linearGradient>
<linearGradient id="paint64_linear_6_2" x1="1021.7" y1="2781.93" x2="2900.04" y2="2781.93" gradientUnits="userSpaceOnUse">
<stop stop-color="#AA80F9"/>
<stop offset="0.996" stop-color="#1EC14C"/>
</linearGradient>
<linearGradient id="paint65_linear_6_2" x1="1766.35" y1="2777.46" x2="2900.04" y2="2777.46" gradientUnits="userSpaceOnUse">
<stop stop-color="#EBEFF2"/>
<stop offset="0.474" stop-color="#D2D9E1"/>
<stop offset="0.995" stop-color="#B7C0CE"/>
</linearGradient>
<linearGradient id="paint66_linear_6_2" x1="3239.14" y1="3321.6" x2="2840.33" y2="3664.65" gradientUnits="userSpaceOnUse">
<stop stop-color="#FF9085"/>
<stop offset="1" stop-color="#FB6FBB"/>
</linearGradient>
<linearGradient id="paint67_linear_6_2" x1="2580.95" y1="3161.24" x2="3189.74" y2="3885.15" gradientUnits="userSpaceOnUse">
<stop offset="0.004" stop-color="#BCBCBC"/>
<stop offset="1" stop-color="#1EC14C"/>
</linearGradient>
<linearGradient id="paint68_linear_6_2" x1="3219.27" y1="3467.03" x2="3235.17" y2="3187.55" gradientUnits="userSpaceOnUse">
<stop stop-color="#BCBCBC"/>
<stop offset="0.996" stop-color="#1EC14C"/>
</linearGradient>
</defs>
</svg>
