<svg width="800" height="800" viewBox="0 0 800 800" fill="none" xmlns="http://www.w3.org/2000/svg">
<path d="M677.984 168.75C675.854 167.157 673.267 166.29 670.605 166.29H461.512V141.693H596.808C600.074 141.693 603.199 140.393 605.506 138.086C607.813 135.779 609.113 132.654 609.113 129.389V30.9872C609.113 27.728 607.813 24.5969 605.506 22.2897C603.199 19.9886 600.074 18.6886 596.808 18.6886H203.215C196.421 18.6886 190.916 24.1939 190.916 30.9872V129.389C190.916 132.654 192.21 135.779 194.517 138.086C196.824 140.393 199.949 141.693 203.215 141.693H338.511V166.29H129.418C126.757 166.29 124.169 167.157 122.039 168.75L23.6369 242.547V242.553C19.4012 245.727 17.6738 251.257 19.3523 256.28C21.0246 261.303 25.7243 264.691 31.016 264.691H43.3207V326.189C43.3146 340.367 48.2096 354.112 57.1757 365.092C66.1418 376.078 78.6288 383.622 92.521 386.461V756.695H31.0163V781.292H769.016V756.695H707.518V386.461C721.409 383.623 733.891 376.079 742.857 365.092C751.823 354.112 756.718 340.367 756.718 326.189V264.691H769.017C774.308 264.691 779.008 261.303 780.687 256.28C782.359 251.257 780.632 245.727 776.396 242.553L677.984 168.75ZM461.5 645.984H436.897V621.387H461.494L461.5 645.984ZM559.902 756.684L486.099 756.691V707.49H559.895L559.902 756.684ZM510.702 645.984V621.387H535.299V645.984H510.702ZM682.905 756.684L584.503 756.691V707.49H646.002C649.267 707.49 652.392 706.19 654.699 703.883C657.006 701.576 658.306 698.451 658.306 695.186V572.187C658.306 568.922 657.006 565.797 654.699 563.49C652.392 561.183 649.267 559.889 646.002 559.889H400.002C393.208 559.889 387.697 565.394 387.697 572.187V695.186C387.697 698.451 388.997 701.576 391.304 703.883C393.611 706.19 396.736 707.49 400.002 707.49H461.5V756.691H338.495V744.386C338.495 728.076 332.02 712.434 320.484 700.898C308.955 689.369 293.311 682.887 276.997 682.887H203.2C186.886 682.887 171.249 689.369 159.713 700.898C148.177 712.434 141.702 728.078 141.702 744.386V756.684L117.099 756.691V386.331C131.826 383.346 144.955 375.076 154 363.083C165.615 378.567 183.841 387.68 203.2 387.68C222.555 387.68 240.786 378.567 252.4 363.083C264.015 378.567 282.241 387.68 301.6 387.68C320.955 387.68 339.186 378.567 350.8 363.083C362.415 378.567 380.641 387.68 400 387.68C419.355 387.68 437.586 378.567 449.2 363.083C460.815 378.567 479.041 387.68 498.4 387.68C517.755 387.68 535.986 378.567 547.594 363.083C559.209 378.567 577.441 387.68 596.794 387.68C616.155 387.68 634.38 378.567 645.994 363.083C655.045 375.076 668.167 383.347 682.895 386.331L682.905 756.684ZM584.503 645.984V621.387H609.1V645.984H584.503ZM67.9095 240.094L133.467 190.894H666.561L732.119 240.094H67.9095Z" fill="white"/>
<path d="M301.594 609.094C301.594 643.059 274.055 670.592 240.096 670.592C206.13 670.592 178.591 643.059 178.591 609.094C178.591 575.128 206.13 547.589 240.096 547.589C274.055 547.589 301.594 575.128 301.594 609.094Z" fill="white"/>
</svg>
