<svg width="800" height="800" viewBox="0 0 800 800" fill="none" xmlns="http://www.w3.org/2000/svg">
<path d="M733.333 733.333H66.6667" stroke="#038E29" stroke-width="50" stroke-linecap="round"/>
<path d="M66.6667 366.667L337.53 149.977C374.053 120.76 425.947 120.76 462.47 149.977L733.333 366.667" stroke="#038E29" stroke-width="50" stroke-linecap="round"/>
<path opacity="0.5" d="M516.667 183.333V116.667C516.667 107.462 524.13 100 533.333 100H616.667C625.87 100 633.333 107.462 633.333 116.667V283.333" stroke="#038E29" stroke-width="50" stroke-linecap="round"/>
<path d="M133.333 733.333V316.667" stroke="#038E29" stroke-width="50" stroke-linecap="round"/>
<path d="M666.667 733.333V316.667" stroke="#038E29" stroke-width="50" stroke-linecap="round"/>
<path opacity="0.5" d="M500 733.333V566.667C500 519.527 500 495.957 485.357 481.31C470.71 466.667 447.14 466.667 400 466.667C352.86 466.667 329.289 466.667 314.645 481.31C300 495.957 300 519.527 300 566.667V733.333" stroke="#038E29" stroke-width="50"/>
<path opacity="0.5" d="M466.667 316.667C466.667 353.487 436.82 383.333 400 383.333C363.18 383.333 333.333 353.487 333.333 316.667C333.333 279.848 363.18 250 400 250C436.82 250 466.667 279.848 466.667 316.667Z" stroke="#038E29" stroke-width="50"/>
</svg>
