<svg width="800" height="800" viewBox="0 0 800 800" fill="none" xmlns="http://www.w3.org/2000/svg">
<path d="M202.202 585.38C146.848 585.38 101.973 540.505 101.973 485.151C101.973 429.796 146.848 384.921 202.202 384.921V585.38Z" fill="#7BC18F"/>
<path d="M597.797 585.38C653.152 585.38 698.027 540.505 698.027 485.151C698.027 429.796 653.152 384.921 597.797 384.921V585.38Z" fill="#7BC18F"/>
<path d="M433.705 729.071H378.712V784.064H433.705V729.071Z" fill="#FFF9E6"/>
<path d="M400 5.5C482.063 5.5 559.42 37.6616 617.861 96.1025C676.302 154.542 708.463 231.899 708.463 313.962V486.038C708.463 486.024 708.464 486.044 708.458 486.15C708.454 486.207 708.451 486.258 708.445 486.347C708.44 486.426 708.432 486.529 708.426 486.641L708.421 486.745L708.419 486.851C707.504 547.085 658.241 595.816 597.797 595.816C592.033 595.816 587.362 591.144 587.362 585.38V384.921C587.362 379.157 592.034 374.485 597.797 374.484C629.383 374.484 657.902 387.805 678.098 409.127L687.59 419.149V313.962C687.59 155.38 558.581 26.3721 400 26.3721C241.418 26.3723 112.409 155.38 112.409 313.962V419.149L121.902 409.127C142.098 387.805 170.617 374.484 202.203 374.484C207.966 374.485 212.638 379.157 212.638 384.921V585.38C212.638 591.144 207.967 595.816 202.203 595.816C141.759 595.816 92.4961 547.085 91.5806 486.851L91.5786 486.745L91.5737 486.641L91.5552 486.347C91.5493 486.258 91.546 486.206 91.5425 486.149C91.536 486.043 91.5366 486.024 91.5366 486.038V313.962C91.5366 231.899 123.698 154.542 182.139 96.1025C240.58 37.6617 317.936 5.50012 400 5.5ZM185.228 396.967C143.805 404.925 112.409 441.427 112.409 485.15C112.409 528.872 143.805 565.375 185.228 573.333L191.766 574.589V395.711L185.228 396.967ZM608.234 574.589L614.771 573.333C656.194 565.376 687.59 528.874 687.59 485.15C687.59 441.427 656.195 404.925 614.772 396.967L608.234 395.711V574.589Z" fill="#038E29" stroke="#038E29" stroke-width="11"/>
<path d="M659.456 625.237C661.723 620.137 667.583 617.754 672.737 619.742L673.233 619.948C678.499 622.292 680.868 628.461 678.526 633.725C673.435 645.16 667.666 656.266 661.378 666.728V666.729C659.424 669.982 655.977 671.792 652.417 671.792C650.592 671.792 648.745 671.314 647.056 670.299L646.603 670.011C642.022 666.933 640.611 660.765 643.487 655.979L643.488 655.978C649.343 646.232 654.714 635.891 659.455 625.239L659.456 625.237Z" fill="#038E29" stroke="#038E29" stroke-width="11"/>
<path d="M614.114 695.802C617.848 691.655 624.158 691.201 628.444 694.686L628.852 695.034C633.001 698.772 633.453 705.082 629.97 709.365L629.621 709.773C579.713 765.173 512.068 794.5 433.705 794.5H378.712C372.948 794.5 368.276 789.828 368.276 784.063V729.069C368.276 723.305 372.948 718.633 378.712 718.633H433.705C439.469 718.633 444.141 723.305 444.141 729.069V773.479L449.958 773.144C515.144 769.382 571.72 742.861 614.113 695.803L614.114 695.802ZM389.148 773.628H423.269V739.507H389.148V773.628Z" fill="#038E29" stroke="#038E29" stroke-width="11"/>
</svg>
